<?xml version="1.0" encoding="UTF-8" standalone="no"?>
<svg
   xmlns:dc="http://purl.org/dc/elements/1.1/"
   xmlns:cc="http://creativecommons.org/ns#"
   xmlns:rdf="http://www.w3.org/1999/02/22-rdf-syntax-ns#"
   xmlns:svg="http://www.w3.org/2000/svg"
   xmlns="http://www.w3.org/2000/svg"
   xmlns:sodipodi="http://sodipodi.sourceforge.net/DTD/sodipodi-0.dtd"
   xmlns:inkscape="http://www.inkscape.org/namespaces/inkscape"
   id="svg19340"
   version="1.1"
   viewBox="0 0 690.56248 330.72917"
   height="1250"
   width="2610"
   sodipodi:docname="vHacksBoatWaves.svg"
   inkscape:version="0.92.4 (5da689c313, 2019-01-14)">
  <sodipodi:namedview
     pagecolor="#ffffff"
     bordercolor="#666666"
     borderopacity="1"
     objecttolerance="10"
     gridtolerance="10"
     guidetolerance="10"
     inkscape:pageopacity="0"
     inkscape:pageshadow="2"
     inkscape:window-width="1920"
     inkscape:window-height="1057"
     id="namedview20627"
     showgrid="false"
     inkscape:zoom="0.347"
     inkscape:cx="914.42457"
     inkscape:cy="235.56195"
     inkscape:window-x="1072"
     inkscape:window-y="642"
     inkscape:window-maximized="1"
     inkscape:current-layer="svg19340" />
  <defs
     id="defs19334" />
  <metadata
     id="metadata19337">
    <rdf:RDF>
      <cc:Work
         rdf:about="">
        <dc:format>image/svg+xml</dc:format>
        <dc:type
           rdf:resource="http://purl.org/dc/dcmitype/StillImage" />
        <dc:title></dc:title>
      </cc:Work>
    </rdf:RDF>
  </metadata>
  <g
     transform="translate(-367.89509,33.681116)"
     id="layer1">
    <g
       id="g19332"
       style="display:inline"
       transform="matrix(0.26458333,0,0,0.26458333,-0.21334066,-116.26327)">
      <path
         style="fill:#27343a;stroke:none;stroke-width:3.79999995;stroke-miterlimit:4;stroke-dasharray:none;stroke-opacity:1"
         d="m 3747.6914,1027.8906 c -32.8035,0.095 -66.6826,1.8131 -92.2207,5.127 -21.7049,2.8166 -76.9583,14.1831 -95.5,19.6465 -6.325,1.8637 -17.0445,4.7228 -23.8203,6.3535 -14.9591,3.5999 -27.2884,7.1303 -54.1797,15.5136 -11.275,3.5154 -25.45,7.7324 -31.5,9.3711 -13.5382,3.667 -36.6176,11.9585 -54.2793,19.502 -7.3035,3.1194 -19.0035,7.2602 -26,9.2012 -14.749,4.0918 -31.33,9.6267 -49.7207,16.5976 -7.15,2.7101 -19.3,6.6864 -27,8.836 -16.4455,4.5909 -27.2671,8.0891 -56.6738,18.3203 -13.6774,4.7587 -31.5717,9.9721 -48.5,14.1308 -14.7541,3.6246 -41.9012,10.3669 -60.3262,14.9825 -36.5793,9.1634 -55.756,15.2184 -78,18.4921 -7.975,1.1738 -19.45,3.2592 -25.5,4.6348 -37.8068,8.5965 -40.4148,6.9061 -75,6.8711 -32.5717,-0.033 -47.5182,-1.798 -66.582,-7.8633 -9.6736,-3.0777 -15.418,-3.6768 -15.418,-1.6074 0,3.795 18.0031,8.915 43.5,12.3711 6.7003,0.9082 20.2707,1.4575 37.5,1.5195 30.7432,0.1097 41.215,0.9598 71.5215,-5.8535 9.6375,-2.1666 25.1625,-5.117 34.5,-6.5566 21.6438,-3.337 41.9934,-9.7557 76.4785,-18.6075 15.125,-3.8823 40.775,-10.3571 57,-14.3886 21.7634,-5.4077 36.65,-9.8394 56.7617,-16.8985 14.9936,-5.2628 35.0223,-11.784 44.5098,-14.4921 9.4876,-2.7084 22.1964,-6.7935 28.2402,-9.0782 20.9415,-7.916 39.0214,-14.2777 45.9883,-16.1797 12.8627,-3.5117 28.906,-9.0779 38.5,-13.3574 11.9893,-5.3479 34.914,-13.4607 50.5,-17.873 6.6,-1.8684 24.825,-7.278 40.5,-12.0196 15.675,-4.7416 34.125,-9.9914 41,-11.6679 6.875,-1.6765 17.7156,-4.5917 24.0898,-6.4785 13.578,-4.0192 38.9015,-9.7923 64.9102,-14.7969 44.6288,-8.5876 65.8008,-10.3666 131,-11.002 42.3412,-0.4126 62.099,0.978 104.2676,7.3379 3.7227,0.5614 10.0227,0.9645 14,0.8945 l 7.2324,-0.1289 -7,-0.8574 c -12.3883,-1.518 -22.6413,-2.9338 -39.0137,-5.3847 -21.2349,-3.1789 -52.9621,-4.7061 -85.7656,-4.6114 z"
         id="path15050"
         inkscape:connector-curvature="0" />
      <path
         style="fill:#27343a;stroke:none;stroke-width:3.79999995;stroke-miterlimit:4;stroke-dasharray:none;stroke-opacity:1"
         d="m 2277.1475,1231.7549 c -5.351,1e-4 -10.9373,0.014 -16.789,0.041 -18.7035,-1.6862 -87.2143,4.1902 -48.7578,4.8574 35.8394,-1.3438 107.3717,-1.3876 129.1875,0.4258 46.2169,3.8417 85.2102,10.4971 146.5703,25.0176 5.775,1.3667 26.475,5.8369 46,9.9336 56.5386,11.8629 95.7485,21.7721 134.5,33.9922 17.113,5.3965 49.6833,15.0586 83,24.6211 9.9,2.8414 26.325,7.6196 36.5,10.6172 10.175,2.9975 34.925,9.4771 55,14.4004 72.9207,17.8835 106.0098,26.8941 134,36.4882 17.3556,5.9489 41.6165,13.2331 68.5,20.5684 9.9,2.7012 20.025,5.5574 22.5,6.3457 16.0863,5.1234 70.9796,15.4158 123,23.0625 22.455,3.3008 41.7791,6.4204 46,7.4277 3.8602,0.9213 8.577,1.288 7.9023,0.6133 -0.6379,-0.6379 -31.384,-6.1921 -46.9023,-8.4726 -59.3822,-8.7266 -111.7742,-19.653 -156,-32.5332 -14.575,-4.2448 -31,-9.0071 -36.5,-10.5821 -5.5,-1.575 -17.2,-5.3939 -26,-8.4863 -28.7282,-10.0952 -64.1869,-19.8895 -136,-37.5684 -18.15,-4.4681 -45.15,-11.7194 -60,-16.1132 -14.85,-4.3938 -34.875,-10.2265 -44.5,-12.9629 -19.516,-5.5482 -40.4405,-11.8485 -71,-21.375 -31.1749,-9.7183 -42.4296,-12.8594 -71.3633,-19.9161 -24.6661,-6.0158 -33.9084,-8.0811 -83.1367,-18.5878 -9.9,-2.1129 -33.075,-7.2117 -51.5,-11.3301 -76.5965,-17.1212 -103.9449,-20.4851 -184.211,-20.4844 z"
         id="path15048"
         inkscape:connector-curvature="0" />
      <path
         id="path1520"
         d="m 1991.6553,1271.3228 c 4.125,-0.5181 10.425,-1.35 14,-1.8486 87.5606,-18.3424 187.5815,-33.0239 248.9099,-32.6983 64.4059,0.3834 79.9731,0.9319 100.0901,3.527 198.1667,23.454 372.5252,88.8597 525.3322,128.4711 11.825,3.052 43.3511,20.3851 43.5939,20.6235 -76.1434,-13.518 -186.3798,-15.0252 -265.837,-21.4181 -0.874,-0.2702 -10.3641,-1.1841 -21.0891,-2.0309 -25.3492,-2.0014 -49.2278,-4.1546 -60.5,-5.4553 -12.2822,-1.4173 -117.1891,-9.9185 -137,-11.1019 -8.8,-0.5257 -23.65,-1.417 -33,-1.9806 -41.9078,-2.5265 -66.2928,-3.2547 -128.701,-3.8434 -51.338,-0.4843 -66.9886,-0.9171 -67.95,-1.8792 -0.9989,-0.9997 -0.8742,-1.25 0.6222,-1.25 1.0292,0 2.5817,-0.6261 3.45,-1.3914 0.8684,-0.7653 8.3288,-5.3339 16.5788,-10.1524 8.25,-4.8186 18.5604,-11.1991 22.912,-14.1789 4.3517,-2.9799 11.3819,-7.1625 15.6228,-9.2948 23.2537,-10.4107 -13.7973,-13.6606 -22.0348,-15.0786 -27.3186,-4.631 -99.6073,-0.4205 -157.5,9.1739 -216.1961,28.6904 -434.0729,153.8876 -604.097,231.7234 -8.2983,2.756 -17.7463,6.3518 -20.9954,7.9906 -23.8413,12.025 -51.5931,22.2235 -60.3608,22.1819 -9.9409,0.7177 -3.2273,-1.2817 1.4532,-3.8156 157.2522,-101.8614 412.2999,-245.1167 586.5,-286.2734 z"
         style="fill:#70e5ff;fill-opacity:1;stroke:none;stroke-opacity:1"
         inkscape:connector-curvature="0" />
      <g
         transform="translate(1235.1088,-32.154135)"
         style="display:inline;opacity:1;stroke:#27343a;stroke-width:4;stroke-miterlimit:4;stroke-dasharray:none;stroke-opacity:1"
         id="g6190">
        <g
           id="g6131"
           style="stroke:#27343a;stroke-width:4;stroke-miterlimit:4;stroke-dasharray:none;stroke-opacity:1">
          <path
             style="fill:#552200;stroke:#27343a;stroke-width:4;stroke-linecap:butt;stroke-linejoin:miter;stroke-miterlimit:4;stroke-dasharray:none;stroke-opacity:1"
             d="m 842.05438,987.67372 c 13.88476,39.54248 36.09418,81.85328 27.06949,122.77948 -9.16026,41.541 -46.00675,72.7407 -77.34139,101.5105 -38.52388,35.3706 -84.40055,63.4522 -132.44713,84.1088 -54.64263,23.4925 -113.65369,40.4013 -173.05136,43.5045 -47.78737,2.4967 -102.63548,6.7395 -142.11481,-20.3021 -17.61286,-12.064 -31.35353,-55.8457 -31.35353,-55.8457 0,0 8.09439,14.7273 13.95172,17.175 17.79527,7.4365 37.76105,9.2193 57.03928,9.6677 22.66442,0.5272 45.39883,-2.557 67.67371,-6.7674 30.71952,-5.8066 61.57954,-12.291 90.87614,-23.2024 34.17287,-12.7276 67.53206,-28.2973 98.61027,-47.3716 30.15928,-18.5103 57.34754,-41.6229 84.10876,-64.7734 13.96913,-12.0844 27.7693,-25.0352 37.70393,-40.6042 11.95075,-18.7285 21.53252,-39.3918 27.06948,-60.9064 5.89002,-22.8864 6.76732,-46.9425 6.76738,-70.57399 5e-5,-17.22795 -4.51059,-34.16012 9.18429,-61.87312 9.23725,-18.69252 27.20565,47.70614 36.25377,73.47433 z"
             id="path6124"
             inkscape:connector-curvature="0" />
          <path
             style="fill:#a15c57;fill-opacity:1;stroke:#27343a;stroke-width:4;stroke-linecap:butt;stroke-linejoin:miter;stroke-miterlimit:4;stroke-dasharray:none;stroke-opacity:1"
             d="m 866.16329,957.50231 c 4.81404,4.18974 12.82854,7.57274 20.94726,9.10365 8.11873,1.5309 16.33385,1.20874 25.59963,-0.92661 9.26577,-2.13536 19.57593,-6.08221 26.98826,-13.19311 7.41234,-7.11091 11.92301,-17.38073 14.50104,-28.09615 2.57802,-10.71541 3.22252,-21.87341 -3.06163,-37.01916 -6.28415,-15.14574 -19.49703,-34.28025 -35.12574,-46.10244 -15.62872,-11.82219 -33.67658,-16.33416 -48.98278,-18.1065 -15.3062,-1.77235 -27.875,-0.80552 -42.53722,6.44481 -14.66221,7.25032 -31.41995,20.78542 -36.89871,42.21531 -5.47875,21.42989 0.32201,50.75593 7.08928,76.69723 6.76727,25.9413 14.50176,48.5002 18.36875,71.05736 3.867,22.5572 3.867,45.1163 -0.64435,68.318 -4.51136,23.2018 -13.5349,47.0497 -31.58071,69.6073 -18.04581,22.5575 -45.11646,43.8273 -72.18532,62.3567 -27.06885,18.5293 -54.13943,34.3205 -82.81964,47.855 -28.68021,13.5346 -58.97347,24.814 -88.29818,32.7091 -29.32472,7.8952 -57.68577,12.4072 -76.91922,14.5824 -19.23345,2.1751 -29.34423,2.0139 -42.23449,1.1681 -12.89027,-0.8459 -28.55997,-2.3767 -44.2903,-6.9688 -15.73034,-4.5921 -31.52019,-12.2453 -41.82952,-20.7642 -10.30934,-8.5189 -15.13467,-17.8993 -17.30616,-25.1519 -2.17148,-7.2526 -1.68741,-12.3697 1.05306,-21.0528 2.74047,-8.6831 7.73545,-20.9268 10.93123,-34.3013 3.19578,-13.3745 4.5913,-27.8741 3.49252,-38.182 -1.09878,-10.308 -4.69138,-16.4215 -10.18449,-21.0334 -5.49311,-4.6119 -12.88712,-7.7222 -21.2992,-7.5659 -8.41207,0.1564 -17.8437,3.5803 -28.85532,8.2654 -11.01161,4.6851 -23.60471,10.632 -34.98358,20.8604 -11.37887,10.2284 -21.54304,24.7389 -25.70406,37.7555 -4.16101,13.0166 -2.31834,24.5367 3.09583,29.8159 5.41416,5.2793 14.39306,4.3129 23.72347,1.3737 9.33041,-2.9391 19.00458,-7.8482 25.67167,-15.428 6.6671,-7.5798 10.32415,-17.8277 6.71657,-22.2035 -3.60757,-4.3758 -14.48162,-2.8802 -25.35454,-1.3848 7.21585,-4.7822 14.71127,-9.7497 21.72387,-11.0815 7.0126,-1.3318 14.10363,0.6022 19.74251,4.4688 5.63888,3.8666 9.82858,9.6677 10.7955,17.7238 0.96692,8.0561 -1.28879,18.3679 -6.28406,32.3871 -4.99527,14.0191 -12.72851,31.7411 -17.2403,44.1482 -4.51179,12.4072 -5.80073,19.4964 -5.31736,28.0371 0.48338,8.5408 2.7388,18.5291 6.76729,26.4249 4.0285,7.8959 9.82869,13.6961 19.01327,18.8523 9.18458,5.1562 21.75257,9.6677 42.05419,13.5347 20.30162,3.8669 48.33914,7.0896 70.89684,8.7009 22.55771,1.6112 39.6378,1.6112 59.45594,-0.1612 19.81813,-1.7724 42.37736,-5.3174 71.54065,-12.0846 29.16328,-6.7672 64.93547,-16.7576 107.35157,-31.6214 42.4161,-14.8638 91.48119,-34.6027 131.62212,-55.3279 40.14094,-20.7252 71.35949,-42.4372 91.88309,-58.2279 20.5236,-15.7906 30.35241,-25.6597 37.74389,-36.5158 7.39147,-10.856 12.34617,-22.6989 14.46074,-36.5147 2.11457,-13.8159 1.38943,-29.608 -2.07489,-47.2915 -3.46432,-17.6836 -9.66776,-37.2607 -19.25482,-54.8033 -9.58705,-17.5425 -22.55787,-33.0511 -33.91742,-50.3322 -11.35956,-17.28105 -21.10781,-36.33446 -25.33727,-51.98423 -4.22946,-15.64976 -2.94041,-27.89575 2.21582,-36.43509 5.15622,-8.53933 14.18019,-13.3736 23.32355,-16.49513 9.14337,-3.12152 18.40945,-4.53158 26.58609,-1.12771 8.17664,3.40387 15.2662,11.62132 18.81108,19.33493 3.54488,7.71361 3.54488,14.92402 1.08813,21.4698 -2.45675,6.54578 -7.37006,12.42565 -13.43373,15.85084 -6.06368,3.42519 -13.27137,4.39158 -20.02016,2.67946 -6.7488,-1.71212 -13.03195,-6.10227 -19.31594,-10.49301 1.61128,4.99496 3.22236,9.98932 8.0364,14.17905 z"
             id="path6103"
             inkscape:connector-curvature="0" />
        </g>
        <g
           transform="matrix(1,0,0,0.7896023,39.534743,267.33912)"
           id="g6174"
           style="stroke:#27343a;stroke-width:4.50148487;stroke-miterlimit:4;stroke-dasharray:none;stroke-opacity:1">
          <g
             style="opacity:1;stroke:#27343a;stroke-width:4.50148487;stroke-miterlimit:4;stroke-dasharray:none;stroke-opacity:1"
             id="g6152">
            <path
               id="path6118"
               d="m 118.94775,1167.6091 c 333.66979,-257.25302 601.56356,-151.165 712.31929,57.4231 79.29246,-129.5403 58.28692,-638.744 -97.0723,-884.58845 -142.50105,6.87024 -286.57396,5.40968 -424.82918,34.78283 74.6286,242.0691 -58.79332,603.52469 -190.41781,792.38252 z"
               style="fill:#ffffff;stroke:#27343a;stroke-width:4.50148487;stroke-linecap:butt;stroke-linejoin:miter;stroke-miterlimit:4;stroke-dasharray:none;stroke-opacity:1"
               inkscape:connector-curvature="0" />
            <path
               id="path6139"
               d="m 426.57125,360.26837 c 38.34582,144.38791 40.84686,448.49724 4.78525,658.99793"
               style="opacity:1;fill:none;stroke:#27343a;stroke-width:4.50148487;stroke-linecap:butt;stroke-linejoin:miter;stroke-miterlimit:4;stroke-dasharray:none;stroke-opacity:1"
               inkscape:connector-curvature="0" />
            <path
               id="path6143"
               d="m 631.65358,345.91261 c 90.34549,282.40767 99.19268,587.20386 43.06728,716.42089"
               style="fill:none;stroke:#27343a;stroke-width:4.50148487;stroke-linecap:butt;stroke-linejoin:miter;stroke-miterlimit:4;stroke-dasharray:none;stroke-opacity:1"
               inkscape:connector-curvature="0" />
          </g>
          <g
             id="g6161"
             style="stroke:#27343a;stroke-width:4.50148487;stroke-miterlimit:4;stroke-dasharray:none;stroke-opacity:1">
            <path
               id="path6145"
               d="M 509.96979,111.78247 348.63996,301.1363 537.99931,192.44266 Z"
               style="fill:#3560b8;fill-opacity:1;stroke:#27343a;stroke-width:4.50148487;stroke-linecap:butt;stroke-linejoin:miter;stroke-miterlimit:4;stroke-dasharray:none;stroke-opacity:1"
               inkscape:connector-curvature="0" />
            <path
               id="path6116"
               d="m 576.96495,1234.4726 c 30.92917,-106.994 17.27047,-709.03298 -5.46886,-884.45834 14.1509,-1.28782 162.69865,-9.57051 162.69865,-9.57051 l -8.5451,-15.72298 -155.52076,8.20329 C 560.21756,242.3658 546.674,161.30723 524.95468,101.63142 l -14.98489,10.15105 c 22.26608,63.78121 32.2631,142.46056 42.05438,221.38973 -100.43793,8.75545 -199.65957,17.57274 -247.49245,29.00302 l 4.83384,13.05136 c 75.11606,-11.99881 159.67657,-17.38652 243.62538,-23.20241 20.21702,276.67615 41.12162,552.08353 -1.45015,892.82873 z"
               style="fill:#a15c57;fill-opacity:1;stroke:#27343a;stroke-width:4.50148487;stroke-linecap:butt;stroke-linejoin:miter;stroke-miterlimit:4;stroke-dasharray:none;stroke-opacity:1"
               inkscape:connector-curvature="0" />
          </g>
        </g>
      </g>
      <path
         id="path1546"
         d="m 2971.7666,1229.4107 c -25.0334,-0.7998 -44.4243,-2.6126 -49.4251,-4.6206 -1.0588,-0.4252 -4.2882,-1.2572 -7.1764,-1.8489 -4.6552,-0.9537 -5.1118,-1.2655 -4.0222,-2.7471 1.1241,-1.5285 3.1055,-1.5844 23.1764,-0.6541 64.2864,3.9864 109.9772,-9.9052 165.6206,-21.1712 55.9513,-14.3876 99.7857,-24.8434 147.8267,-41.5251 16.225,-5.6549 34.675,-11.6544 41,-13.3322 72.5412,-24.8325 209.4584,-67.5672 249.5,-80.6783 160.4384,-52.5335 356.1486,-38.177 454.7561,18.6332 2.8814,1.1357 5.8025,2.5327 6.4914,3.1044 1.3624,1.1307 1.8323,16.8135 0.5025,16.7702 -0.4125,-0.014 -2.55,-0.4378 -4.75,-0.9429 -3.9905,-0.9162 -19.0601,-2.5175 -38,-4.0377 -5.5,-0.4415 -21.025,-1.7548 -34.5,-2.9184 -52.9661,-4.7791 -85.948,-4.6126 -138,-7.085 -60.1157,-2.9033 -107.8901,-1.6492 -134.5,3.5306 -17.7298,3.4512 -28.7709,6.0984 -52,12.4673 -48.8999,15.6107 -78.2751,25.4917 -124.879,36.9605 -7.9353,-0.3538 98.6189,-42.95 107.4393,-42.95 5.0693,0 0.8907,-2.7317 -7.5603,-4.9425 -9.7391,-2.5477 -54.7473,-1.003 -72,2.4711 -13.3111,2.6803 -27.0135,5.5796 -30.5,6.4534 -1.925,0.4824 -6.2,1.4259 -9.5,2.0967 -10.6137,2.1572 -15.8295,3.6268 -24,6.7619 -4.4,1.6883 -14.075,4.8482 -21.5,7.0221 -66.4342,19.5093 -129.721,55.8898 -194.0148,77.6531 -3.0169,0.9708 -9.0852,3.0405 -13.4852,4.5995 -77.5837,27.1176 -157.8183,33.8971 -236.5,30.93 z"
         style="display:inline;fill:#70e5ff;fill-opacity:1"
         inkscape:connector-curvature="0" />
    </g>
  </g>
</svg>
