<?xml version="1.0" encoding="UTF-8" standalone="no"?>
<svg
   xmlns:dc="http://purl.org/dc/elements/1.1/"
   xmlns:cc="http://creativecommons.org/ns#"
   xmlns:rdf="http://www.w3.org/1999/02/22-rdf-syntax-ns#"
   xmlns:svg="http://www.w3.org/2000/svg"
   xmlns="http://www.w3.org/2000/svg"
   xmlns:sodipodi="http://sodipodi.sourceforge.net/DTD/sodipodi-0.dtd"
   xmlns:inkscape="http://www.inkscape.org/namespaces/inkscape"
   id="svg19340"
   version="1.1"
   viewBox="0 0 347.66249 84.666669"
   height="320"
   width="1314"
   sodipodi:docname="vHacksTitle.svg"
   inkscape:version="0.92.4 (5da689c313, 2019-01-14)">
  <sodipodi:namedview
     pagecolor="#ffffff"
     bordercolor="#666666"
     borderopacity="1"
     objecttolerance="10"
     gridtolerance="10"
     guidetolerance="10"
     inkscape:pageopacity="0"
     inkscape:pageshadow="2"
     inkscape:window-width="1920"
     inkscape:window-height="1057"
     id="namedview20038"
     showgrid="false"
     inkscape:zoom="11.104"
     inkscape:cx="130.70019"
     inkscape:cy="181.77273"
     inkscape:window-x="1072"
     inkscape:window-y="642"
     inkscape:window-maximized="1"
     inkscape:current-layer="svg19340" />
  <defs
     id="defs19334" />
  <metadata
     id="metadata19337">
    <rdf:RDF>
      <cc:Work
         rdf:about="">
        <dc:format>image/svg+xml</dc:format>
        <dc:type
           rdf:resource="http://purl.org/dc/dcmitype/StillImage" />
        <dc:title></dc:title>
      </cc:Work>
    </rdf:RDF>
  </metadata>
  <g
     transform="matrix(0.99869478,0,0,0.99861811,-685.31972,-27.783904)"
     id="layer1">
    <g
       transform="matrix(0.3119978,0,0,0.3119978,254.0991,-97.654391)"
       id="g15129"
       style="display:inline">
      <path
         id="path2049"
         d="m 1522.0999,669.99589 c -0.4558,-1.18898 -0.6433,-34.57252 -0.4163,-74.18565 l 0.4127,-72.02387 h 10.2891 10.2892 l 0.8397,59.36033 c 0.4619,32.64818 0.9962,59.53842 1.1872,59.75607 1.3602,1.54932 5.3228,-1.62836 20.7636,-16.65073 l 17.5215,-17.04647 0.4221,-42.7096 0.4224,-42.7096 h 10.2891 10.2891 l 0.4695,40.36502 c 0.6458,55.5457 1.9488,50.56098 -18.3789,70.31365 -35.2069,34.21102 -37.726,35.94806 -53.6982,37.02619 -7.3597,0.49679 -10.0838,0.11619 -10.7018,-1.49534 z m 99.6551,-0.1831 c -0.4172,-1.08827 -0.573,-34.38942 -0.346,-74.00255 l 0.4127,-72.02387 8.2629,-0.47682 c 15.9289,-0.91916 14.6897,-7.14674 14.6897,73.82273 0,53.00284 -0.4787,71.33882 -1.8995,72.75966 -2.5772,2.57722 -20.1263,2.51146 -21.1198,-0.0792 z m 41.487,0.92338 c -1.3186,-1.31855 -1.4099,-141.80936 -0.095,-145.23739 1.0325,-2.69089 16.9525,-3.64618 20.7318,-1.24404 1.1495,0.73072 2.0917,6.1665 2.3744,13.69948 0.6002,15.99995 1.5975,16.18052 15.7958,2.86006 18.6639,-17.50984 19.2109,-17.81938 31.4895,-17.81938 12.5877,0 14.781,1.9381 8.3909,7.4147 -10.7365,9.20165 -22.7574,21.51262 -22.7574,23.30648 0,1.06748 5.6592,7.37536 12.5759,14.01751 15.3279,14.71962 14.5896,11.40323 14.0027,62.90138 l -0.46,40.36503 -9.3508,0.48216 c -6.4093,0.33047 -9.7629,-0.16748 -10.6606,-1.58294 -0.7204,-1.13581 -1.3208,-19.81385 -1.3341,-41.50676 l -0.024,-39.44163 -10.0252,-10.02531 c -11.8287,-11.82867 -11.0168,-11.69025 -20.0507,-3.418 l -7.1232,6.52264 -0.4692,43.64537 c -0.3422,31.85413 -0.9838,43.97254 -2.3744,44.85642 -2.3466,1.49158 -19.1827,1.6582 -20.6367,0.20422 z m 104.1437,-0.92338 c -0.4173,-1.08827 -0.573,-34.38942 -0.346,-74.00255 l 0.4127,-72.02387 9.2355,-0.47872 c 5.447,-0.28235 10.1545,0.28416 11.4763,1.38103 3.5757,2.96763 3.3205,144.76681 -0.2631,146.14196 -4.6845,1.79766 -19.7219,1.05161 -20.5154,-1.01785 z m 41.4294,-1.58294 c -1.2515,-4.66957 -1.2863,-139.47532 -0.036,-142.73107 1.2763,-3.32622 17.063,-3.40963 24.9084,-0.13154 3.1227,1.30474 11.7541,7.79318 19.181,14.41876 16.7454,14.93889 17.9798,14.74872 18.598,-2.86558 l 0.4609,-13.13399 8.6581,-0.49052 c 13.4257,-0.76061 12.7116,-4.97332 12.7116,74.99752 0,79.05416 0.8965,73.9808 -12.9307,73.18954 l -8.439,-0.48291 -0.7915,-41.94797 c -0.5347,-28.33997 -1.4064,-43.01942 -2.6873,-45.2508 -3.0152,-5.25286 -32.3835,-32.49508 -34.3317,-31.84617 -1.2427,0.41399 -1.8857,17.80714 -2.1786,58.94347 -0.4657,65.38625 0.5259,60.83125 -13.2506,60.8687 -7.9195,0.0215 -9.0241,-0.37427 -9.8717,-3.53738 z m 101.3659,2.50632 c -0.5804,-0.58041 -1.0553,-27.66289 -1.0553,-60.18326 v -59.12796 l 3.7696,-5.97156 c 12.3439,-19.55394 35.5117,-27.82057 53.8332,-19.20849 9.359,4.39923 24.0509,19.1759 25.306,25.45211 1.6023,8.01092 1.1335,29.58943 -0.6669,30.70211 -2.5932,1.60269 -19.0759,-16.28952 -20.8176,-22.5979 -2.0429,-7.39876 -14.775,-20.9769 -19.6698,-20.9769 -2.3423,0 -6.3614,2.72019 -10.864,7.35295 l -7.1464,7.35296 v 44.09267 c 0,34.23711 0.4423,44.085 1.9787,44.05841 2.1694,-0.0375 29.6802,-26.12027 29.6802,-28.13959 0,-0.68785 -2.8493,-4.30625 -6.3318,-8.04085 -6.2023,-6.6514 -6.3318,-7.02915 -6.3318,-18.47854 0,-14.79014 0.2919,-14.71076 22.7803,6.1973 20.9813,19.50696 21.0975,20.1651 6.1084,34.61081 -24.272,23.3921 -40.8961,37.79551 -47.0756,40.78694 -6.3367,3.06757 -21.2074,4.4085 -23.4972,2.11879 z m 99.3949,-0.92338 c -0.4173,-1.08827 -0.5731,-34.38942 -0.3461,-74.00255 l 0.4127,-72.02387 8.263,-0.47682 c 15.045,-0.86816 14.6897,-1.69785 14.6897,34.30195 0,17.23663 0.4516,31.79088 1.0034,32.34277 1.282,1.28206 5.7295,-2.24741 20.923,-16.6046 15.7929,-14.92349 15.1426,-13.5901 16.0642,-32.94241 l 0.7915,-16.62089 9.8446,-0.47001 c 9.1396,-0.43634 9.9078,-0.20963 10.7285,3.16588 0.4862,1.99975 0.6863,35.33431 0.4445,74.07683 L 2091.9555,671 h -10.2891 -10.2891 l -0.4032,-38.78209 c -0.2216,-21.33015 -0.7487,-39.71192 -1.1711,-40.84839 -1.1174,-3.00609 -3.5662,-1.24589 -21.3866,15.37214 l -15.8212,14.75368 v 23.24853 c 0,15.97161 -0.5946,23.8431 -1.8996,25.14807 -2.5771,2.57722 -20.1263,2.51146 -21.1197,-0.0792 z m 99.9614,-0.52521 c -2.3374,-6.09094 -1.0115,-84.36711 1.5367,-90.73608 2.2713,-5.67648 13.5932,-17.22104 42.7804,-43.62198 9.8358,-8.89688 17.9072,-12.17624 28.6035,-11.6215 l 9.223,0.47835 V 597.39318 671 l -9.3508,0.48216 c -6.4093,0.33047 -9.7629,-0.16748 -10.6606,-1.58294 -0.7204,-1.13581 -1.3208,-14.72716 -1.3341,-30.20298 l -0.024,-28.13788 -4.3531,2.37557 c -2.3942,1.30654 -10.9421,8.6825 -18.9953,16.39099 l -14.6422,14.01543 v 12.76474 c 0,14.57818 -0.098,14.68638 -13.4151,14.68638 -6.2061,0 -8.6589,-0.65556 -9.3682,-2.50389 z m 43.8579,-72.43649 16.916,-16.37152 v -14.49586 c 0,-18.87081 -1.0073,-18.82474 -21.3698,0.9776 l -15.8294,15.39392 -0.5588,13.07556 c -0.9591,22.44074 -0.8829,22.44593 20.842,1.4203 z m 55.6705,69.79581 c -0.5293,-2.82951 -0.7397,-29.71974 -0.4674,-59.75607 l 0.4949,-54.6115 4.5844,-6.33177 c 18.6513,-25.76122 42.6916,-29.85116 64.4132,-10.95852 11.1652,9.71106 14.1069,14.44036 14.1069,22.67908 v 6.48327 h -10.1664 -10.1663 l -1.7865,-5.41318 c -2.1425,-6.49205 -14.4743,-18.33095 -19.0941,-18.33095 -1.8114,0 -6.6354,3.15694 -10.7202,7.01544 l -7.4268,7.01544 v 43.90104 c 0,29.51179 0.5499,44.08483 1.6776,44.46176 0.9227,0.30839 5.1968,-2.86752 9.4976,-7.05756 14.5607,-14.18507 15.431,-14.60607 30.1948,-14.60607 7.2828,0 13.2415,0.31379 13.2415,0.69731 0,0.70342 -21.7886,21.83705 -38.1176,36.9717 -10.0732,9.3365 -18.7466,12.98515 -30.8677,12.98515 -8.2642,0 -8.4549,-0.10448 -9.3979,-5.14457 z m 101.2985,3.24195 c -0.4334,-1.13011 -0.6023,-34.46548 -0.3753,-74.07861 l 0.4126,-72.02387 6.9963,-0.49988 c 13.4166,-0.95863 14.3735,-0.14167 14.3735,12.27265 0,17.33283 2.2147,19.67507 10.3887,10.98728 2.557,-2.7178 9.4758,-9.12872 15.3748,-14.24648 l 10.7253,-9.30504 h 11.7382 c 6.4559,0 12.1413,0.65275 12.6344,1.45056 0.4931,0.7978 -5.5196,7.38096 -13.3616,14.62922 -7.8419,7.24827 -14.2581,13.6054 -14.2581,14.12696 0,0.52155 5.9456,7.01549 13.2124,14.43098 9.1803,9.36818 13.5278,15.06071 14.2465,18.65361 1.5065,7.53265 1.2211,81.17679 -0.3242,83.61299 -0.8977,1.41546 -4.2513,1.91341 -10.6607,1.58294 L 2372.1363,671 l -0.8588,-41.1565 c -0.4723,-22.63608 -1.0065,-41.38655 -1.1872,-41.66771 -1.1837,-1.84247 -17.468,-16.55653 -19.7407,-17.83694 -2.2471,-1.26612 -4.2529,-0.19227 -10.2891,5.50871 l -7.4978,7.08142 -0.7914,44.03551 -0.7915,44.03551 -9.9138,0.47179 c -7.0224,0.33419 -10.1438,-0.12758 -10.7018,-1.58294 z m 129.5491,-1.7036 c -18.1896,-9.66163 -25.829,-20.6449 -25.829,-37.1346 0,-14.27007 0.3245,-14.67937 11.6058,-14.63793 9.2385,0.0339 9.9912,0.95129 10.9636,13.36315 0.8424,10.75233 1.0511,11.19253 8.8157,18.59957 9.7894,9.33832 10.9594,9.36246 19.4992,0.40209 14.4383,-15.14949 14.0826,-16.02535 -18.6173,-45.84405 -13.3664,-12.18866 -26.0947,-24.81713 -28.2848,-28.06329 -17.3579,-25.72636 22.8016,-62.9468 52.4378,-48.60019 12.7246,6.15988 25.5216,20.90352 26.7623,30.8332 1.8707,14.97338 0.8075,16.54585 -11.1885,16.54585 h -10.2591 v -6.41038 c 0,-8.3007 -2.8441,-13.5919 -11.6875,-21.74345 -8.3385,-7.68609 -9.8043,-7.55146 -19.5756,1.79782 -5.8172,5.56594 -6.7275,7.33311 -6.7275,13.06023 0,6.46066 0.5315,7.12303 21.6469,26.97617 32.9152,30.94762 35.0799,33.29863 36.9069,40.08402 2.9315,10.88646 0.6504,17.86977 -9.2817,28.41609 -14.684,15.59178 -32.3742,20.22386 -47.1872,12.3557 z"
         style="display:inline;fill:#ffffff;stroke:#27343a;stroke-width:4;stroke-miterlimit:4;stroke-dasharray:none;stroke-opacity:1"
         inkscape:connector-curvature="0" />
      <g
         style="display:inline;stroke-width:4;stroke-miterlimit:4;stroke-dasharray:none"
         transform="rotate(27.763307,2050.7838,-1553.3416)"
         id="g12977">
        <g
           id="g13074"
           transform="matrix(0.97633129,-0.03738809,-0.03738809,0.9409402,55.71163,88.004442)">
          <g
             id="g13101"
             transform="matrix(0.85670601,-0.47038471,0.43694981,0.92734903,1061.3969,828.63282)">
            <path
               style="display:inline;fill:#70e5ff;fill-opacity:1;stroke:#27343a;stroke-width:4.3576479;stroke-linecap:butt;stroke-linejoin:miter;stroke-miterlimit:4;stroke-dasharray:none;stroke-opacity:1"
               d="m 1497.8678,444.43322 c 16.3547,15.83346 33.7998,-72.02691 28.8143,-77.96473 15.513,36.89479 10.2195,72.46371 4.818,99.39323 z"
               id="path12972"
               inkscape:connector-curvature="0" />
            <path
               style="display:inline;fill:#70e5ff;fill-opacity:1;stroke:#27343a;stroke-width:4.3576479;stroke-linecap:butt;stroke-linejoin:miter;stroke-miterlimit:4;stroke-dasharray:none;stroke-opacity:1"
               d="m 1460.7833,468.6007 c 7.3151,21.55612 -79.5627,-0.26225 -82.7969,-7.30871 26.7118,29.80529 61.1262,40.23708 87.7778,46.87518 z"
               id="path12972-2"
               inkscape:connector-curvature="0" />
            <path
               id="path12938"
               d="m 1489.1816,547.1923 c 28.1354,-21.87753 48.646,-35.65628 74.7184,-48.29791 3.7674,-1.59181 9.3488,-6.05848 4.6415,-12.96842 -13.6398,-18.01698 -51.9472,-66.77726 -94.5682,-40.47965 -43.6856,26.95451 -10.9722,84.89135 2.5719,102.67496 3.6399,4.18297 8.674,2.26161 12.6364,-0.92898 z"
               style="opacity:1;fill:#ffde69;fill-opacity:1;stroke:#27343a;stroke-width:3.81898546;stroke-linecap:butt;stroke-linejoin:miter;stroke-miterlimit:4;stroke-dasharray:none;stroke-opacity:1"
               inkscape:connector-curvature="0" />
            <path
               id="path12938-9"
               d="m 1517.3556,494.15171 c 28.1208,-16.92069 29.2324,-15.66204 34.415,-18.3431 3.7674,-1.5918 4.6863,-1.45779 2.0023,-5.37359 -13.7013,-16.57593 -41.3891,-40.61698 -70.9354,-27.55373 8.2349,12.07873 24.2918,37.58596 34.5181,51.27042 z"
               style="opacity:1;fill:#3560b8;fill-opacity:1;stroke:none;stroke-width:3.81898546;stroke-linecap:butt;stroke-linejoin:miter;stroke-miterlimit:4;stroke-dasharray:none;stroke-opacity:1"
               inkscape:connector-curvature="0"
               sodipodi:nodetypes="ccccc" />
            <path
               id="path12938-9-2"
               d="m 1472.244,526.17915 c -3.0396,2.64995 -4.7806,4.42193 -7.0671,0.37759 -9.5072,-19.40804 -21.8912,-54.96872 4.011,-75.75966 7.0719,12.43613 24.6209,38.6509 33.0346,53.03192 -1.056,0.78394 -23.1695,17.15571 -29.9785,22.35013 z"
               style="opacity:1;fill:#3560b8;fill-opacity:1;stroke:none;stroke-width:3.75080705;stroke-linecap:butt;stroke-linejoin:miter;stroke-miterlimit:4;stroke-dasharray:none;stroke-opacity:1"
               inkscape:connector-curvature="0"
               sodipodi:nodetypes="cccccc" />
            <path
               style="fill:none;stroke:#27343a;stroke-width:3.81898546;stroke-linecap:butt;stroke-linejoin:miter;stroke-miterlimit:4;stroke-dasharray:none;stroke-opacity:1"
               d="m 1464.7016,531.18686 c 28.7752,-24.58928 60.4743,-42.7706 93.0944,-58.93386"
               id="path13064"
               inkscape:connector-curvature="0" />
            <path
               id="path13076"
               d="m 1502.2225,503.829 c -14.2201,-17.57857 -24.0784,-36.12155 -33.559,-54.74806"
               style="fill:none;stroke:#27343a;stroke-width:3.98748493;stroke-linecap:butt;stroke-linejoin:miter;stroke-miterlimit:4;stroke-dasharray:none;stroke-opacity:1"
               inkscape:connector-curvature="0" />
            <path
               id="path13076-3"
               d="m 1517.3556,494.15171 c -12.418,-16.62991 -24.7596,-34.05993 -35.406,-53.30023"
               style="display:inline;fill:none;stroke:#27343a;stroke-width:3.98748493;stroke-linecap:butt;stroke-linejoin:miter;stroke-miterlimit:4;stroke-dasharray:none;stroke-opacity:1"
               inkscape:connector-curvature="0" />
          </g>
        </g>
      </g>
    </g>
  </g>
</svg>
