<?xml version="1.0" encoding="UTF-8" standalone="no"?>
<svg
   xmlns:dc="http://purl.org/dc/elements/1.1/"
   xmlns:cc="http://creativecommons.org/ns#"
   xmlns:rdf="http://www.w3.org/1999/02/22-rdf-syntax-ns#"
   xmlns:svg="http://www.w3.org/2000/svg"
   xmlns="http://www.w3.org/2000/svg"
   xmlns:xlink="http://www.w3.org/1999/xlink"
   xmlns:sodipodi="http://sodipodi.sourceforge.net/DTD/sodipodi-0.dtd"
   xmlns:inkscape="http://www.inkscape.org/namespaces/inkscape"
   inkscape:version="0.92.4 (5da689c313, 2019-01-14)"
   inkscape:export-ydpi="250"
   inkscape:export-xdpi="250"
   inkscape:export-filename="C:\Users\Cole\Downloads\vikingHacksLandingConceptMobileNoMountain.png"
   sodipodi:docname="vikingHacksSketch2Mobile.svg"
   viewBox="0 0 878 1560"
   height="1560"
   width="878"
   id="svg929"
   version="1.1">
  <metadata
     id="metadata935">
    <rdf:RDF>
      <cc:Work
         rdf:about="">
        <dc:format>image/svg+xml</dc:format>
        <dc:type
           rdf:resource="http://purl.org/dc/dcmitype/StillImage" />
        <dc:title></dc:title>
      </cc:Work>
    </rdf:RDF>
  </metadata>
  <defs
     id="defs933">
    <inkscape:tag
       id="Set 2"
       inkscape:expanded="true">
      <inkscape:tagref
         xlink:href="#path6145"
         id="tagref15137" />
      <inkscape:tagref
         xlink:href="#path12938-9-2"
         id="tagref15139" />
      <inkscape:tagref
         xlink:href="#path12938-9"
         id="tagref15141" />
    </inkscape:tag>
    <linearGradient
       id="linearGradient2018-8"
       inkscape:collect="always">
      <stop
         id="stop2014"
         offset="0"
         style="stop-color:#49b7fb;stop-opacity:1" />
      <stop
         id="stop2016"
         offset="1"
         style="stop-color:#35a7b7;stop-opacity:0;" />
    </linearGradient>
    <inkscape:path-effect
       lpeversion="1"
       is_visible="true"
       id="path-effect1504"
       effect="spiro" />
    <linearGradient
       gradientTransform="matrix(10.781458,0,0,4.2864794,-685.10019,1261.5009)"
       gradientUnits="userSpaceOnUse"
       y2="-60.197254"
       x2="177.24745"
       y1="-287.60907"
       x1="177.24745"
       id="linearGradient2020"
       xlink:href="#linearGradient2018-8"
       inkscape:collect="always" />
    <inkscape:path-effect
       effect="bspline"
       id="path-effect6105"
       is_visible="true"
       weight="33.333333"
       steps="2"
       helper_size="0"
       apply_no_weight="true"
       apply_with_weight="true"
       only_selected="false" />
    <linearGradient
       inkscape:collect="always"
       xlink:href="#linearGradient2018-8"
       id="linearGradient15381"
       gradientUnits="userSpaceOnUse"
       gradientTransform="matrix(10.781458,0,0,4.2864794,-2371.6125,1263.1259)"
       x1="177.24745"
       y1="-287.60907"
       x2="177.24745"
       y2="-60.197254" />
  </defs>
  <sodipodi:namedview
     inkscape:current-layer="layer2"
     inkscape:window-maximized="1"
     inkscape:window-y="642"
     inkscape:window-x="1072"
     inkscape:cy="1160.4114"
     inkscape:cx="671.12431"
     inkscape:zoom="0.55834032"
     showguides="false"
     showgrid="false"
     id="namedview931"
     inkscape:window-height="1057"
     inkscape:window-width="1920"
     inkscape:pageshadow="2"
     inkscape:pageopacity="0"
     guidetolerance="10"
     gridtolerance="10"
     objecttolerance="10"
     borderopacity="1"
     bordercolor="#666666"
     pagecolor="#ffffff"
     inkscape:guide-bbox="true">
    <sodipodi:guide
       position="1306.783,1040"
       orientation="0,1"
       id="guide13129"
       inkscape:locked="false"
       inkscape:label=""
       inkscape:color="rgb(0,0,255)" />
    <sodipodi:guide
       position="1469.0751,520"
       orientation="0,1"
       id="guide13131"
       inkscape:locked="false"
       inkscape:label=""
       inkscape:color="rgb(0,0,255)" />
    <inkscape:grid
       type="xygrid"
       id="grid13133" />
    <sodipodi:guide
       position="853,1945.2581"
       orientation="1,0"
       id="guide13135"
       inkscape:locked="false"
       inkscape:label=""
       inkscape:color="rgb(0,0,255)" />
    <sodipodi:guide
       position="1706,1697.035"
       orientation="1,0"
       id="guide13137"
       inkscape:locked="false"
       inkscape:label=""
       inkscape:color="rgb(0,0,255)" />
    <sodipodi:guide
       position="551.63489,1834.0069"
       orientation="0,1"
       id="guide15558"
       inkscape:locked="false" />
  </sodipodi:namedview>
  <g
     inkscape:groupmode="layer"
     id="layer9"
     inkscape:label="Image 5">
    <rect
       style="display:inline;opacity:1;fill:#ffffff;fill-opacity:1;stroke:none;stroke-width:4.4031496;stroke-linecap:butt;stroke-linejoin:miter;stroke-miterlimit:4;stroke-dasharray:none;stroke-opacity:1;paint-order:stroke fill markers"
       id="rect15588"
       width="1529.5331"
       height="927.74957"
       x="-25.074358"
       y="-288.33508" />
    <rect
       y="1.625072"
       x="-1686.542"
       height="1032.1371"
       width="2560"
       id="rect2012"
       style="display:inline;fill:url(#linearGradient15381);fill-opacity:1;stroke-width:6.79812002;stroke-linejoin:round;stroke-miterlimit:4;stroke-dasharray:40.7887, 6.79811999999999994;stroke-dashoffset:0" />
  </g>
  <g
     inkscape:groupmode="layer"
     id="layer10"
     inkscape:label="Image 6">
    <g
       style="display:inline"
       id="g15578"
       transform="matrix(0.74474433,0,0,0.74474433,-900.46537,20.22873)">
      <ellipse
         transform="translate(1610.9902,-1.6250755)"
         ry="261.52069"
         rx="283.05023"
         cy="219.82759"
         cx="740.69635"
         id="path13139"
         style="display:inline;opacity:1;fill:#ffd169;fill-opacity:1;stroke:none;stroke-width:4.56937265;stroke-linecap:butt;stroke-linejoin:miter;stroke-miterlimit:4;stroke-dasharray:none;stroke-opacity:1;paint-order:stroke fill markers" />
      <path
         sodipodi:nodetypes="cccsccsccscc"
         inkscape:connector-curvature="0"
         style="fill:#27343a;stroke:none;stroke-width:3.79999995;stroke-miterlimit:4;stroke-dasharray:none;stroke-opacity:1"
         d="m 2092.9277,102.21484 -2.4257,4.14258 c -6.847,11.68868 -17.4468,40.43169 -21.9942,59.64258 -8.845,37.36676 -6.7886,85.07646 4.1023,123.26257 2.1968,7.70256 4.6424,16.57961 11.2136,32.25281 9.463,17.79038 11.3969,11.20059 8.1709,4.94241 C 2082.617,305.33485 2080.2883,301.2949 2075.6211,285.5 2044.8397,181.32752 2088.749,69.298858 2183.8848,6.0917969 c 6.666,-4.42877 7.9606,-5.65845401 6.2265,-5.91406252 -2.8562,-0.42102822 -19.8575,11.50712362 -35.2773,24.75195362 -21.0243,18.058786 -42.1412,43.130854 -56.2793,66.820312 -2.0516,3.4375 -5.627,10.46484 -5.627,10.46484 z"
         id="path15076" />
      <path
         inkscape:connector-curvature="0"
         style="fill:#27343a;stroke:none;stroke-width:3.79999995;stroke-miterlimit:4;stroke-dasharray:none;stroke-opacity:1"
         d="m 1651.5309,87.498571 c 14.3898,3.708988 39.2945,10.10006 55.3438,14.200409 16.0493,4.10039 41.186,10.79383 55.8595,14.8742 14.6734,4.08035 34.0519,9.46681 43.0642,11.97056 9.0123,2.50375 28.7336,8.5897 43.825,13.52368 55.6805,18.20413 85.9272,26.47249 121.2535,33.14954 33.9498,6.4169 55.6859,10.9961 57.5698,12.12681 2.0245,1.21509 5.0252,1.11555 4.9955,-0.16456 -0.042,-1.80845 -22.1414,-6.95854 -58.3305,-13.5959 -28.0516,-5.14486 -39.0061,-7.89514 -80.9927,-20.33061 -12.1868,-3.60948 -29.883,-9.18543 -39.3248,-12.39128 -9.4417,-3.20585 -29.387,-9.24655 -44.3228,-13.42228 -14.9357,-4.17571 -34.4054,-9.64873 -43.2661,-12.16321 -14.1337,-4.01089 -47.0093,-12.73908 -116.246,-30.862577 -45.1283,-14.285854 -51.9048,-10.477493 0.5716,3.085218 z"
         id="path15074"
         sodipodi:nodetypes="ccssssccsccsccc" />
      <path
         sodipodi:nodetypes="ccccsccsscccc"
         inkscape:connector-curvature="0"
         style="display:inline;fill:#27343a;stroke:none;stroke-width:3.79999995;stroke-miterlimit:4;stroke-dasharray:none;stroke-opacity:1"
         d="m 1692.9647,304.89422 c 22.7506,-1.39817 42.3988,-3.89121 57.5844,-5.05677 15.1855,-1.16559 35.2395,-2.70703 44.5655,-3.42516 9.326,-0.7181 29.9408,-1.71877 45.8102,-2.22434 58.5511,-1.86524 89.8048,-4.4019 125.2914,-10.16598 34.104,-5.5395 56.0993,-8.64346 58.2559,-8.22261 2.3173,0.45225 5.1043,-0.66414 4.6402,-1.85748 -0.6559,-1.68586 -23.1873,1.00528 -59.4717,7.1008 -28.1254,4.72488 -39.3612,5.87322 -83.0723,8.49398 -12.6874,0.76069 -31.2244,1.55057 -41.1934,1.75501 -9.9691,0.20443 -30.779,1.324 -46.2437,2.48936 -15.4646,1.16532 -35.6339,2.6565 -44.8209,3.31282 -32.8938,0.8074 -157.9237,15.17591 -61.3456,7.80037 z"
         id="path15074-0" />
      <path
         sodipodi:nodetypes="ccccsccsscccc"
         inkscape:connector-curvature="0"
         style="display:inline;fill:#27343a;stroke:none;stroke-width:3.79999995;stroke-miterlimit:4;stroke-dasharray:none;stroke-opacity:1"
         d="m 1774.9143,-86.482651 c 19.3664,12.020283 36.8355,21.352818 49.8966,29.186643 13.061,7.83374 30.3107,18.177241 38.3334,22.986379 8.0225,4.80915 25.4169,15.918166 38.6539,24.6859092 48.839,32.3491898 75.7998,48.3596808 108.0805,64.1862358 31.0231,15.209951 50.7601,25.401902 52.2758,26.992741 1.6286,1.709406 4.5477,2.410994 4.8595,1.169124 0.4402,-1.754577 -19.4953,-12.593384 -52.6186,-28.611111 -25.6749,-12.415916 -35.5042,-17.978905 -72.6752,-41.127167 -10.7892,-6.7189281 -26.3667,-16.7979091 -34.6166,-22.398013 -8.2501,-5.600185 -25.8722,-16.725063 -39.1609,-24.720506 -13.2885,-7.995419 -30.6032,-18.446618 -38.4766,-23.225752 -27.2985,-18.369827 -137.5968,-78.976812 -54.5518,-29.124483 z"
         id="path15074-0-2" />
    </g>
    <path
       sodipodi:nodetypes="cscccc"
       d="m -1662.3345,951.6501 c 0,0 43.002,0.77892 64.4819,0 842.98164,-30.5688 2503.9341,0 2503.9341,0 l -2,608.4148 h -2568.416 z"
       style="display:inline;fill:#2fa4ff;fill-opacity:1;stroke-width:4.6434598;stroke-linejoin:round;stroke-dasharray:27.8607, 4.64346000000000014"
       id="rect2004"
       inkscape:connector-curvature="0" />
    <path
       sodipodi:nodetypes="csssccccscscssccsccsssssscccc"
       id="path1546"
       d="m 472.8439,1113.912 c -10.4842,-0.3349 -18.6053,-1.0941 -20.6997,-1.9351 -0.4435,-0.1781 -1.796,-0.5265 -3.0056,-0.7744 -1.9496,-0.3994 -2.1408,-0.53 -1.6845,-1.1505 0.4708,-0.6401 1.3006,-0.6635 9.7065,-0.2739 26.9238,1.6695 46.0596,-4.1484 69.3637,-8.8667 23.433,-6.0257 41.7913,-10.4047 61.9114,-17.3912 6.7952,-2.3683 14.5222,-4.881 17.1712,-5.5837 30.381,-10.4001 87.7234,-28.2978 104.4932,-33.7889 67.1933,-22.0016 149.1588,-15.9889 190.4567,7.8038 1.2067,0.4756 2.4301,1.0607 2.7186,1.3002 0.5706,0.4735 0.7674,7.0416 0.2105,7.0235 -0.1728,-0.01 -1.068,-0.1834 -1.9894,-0.3949 -1.6712,-0.3837 -7.9825,-1.0544 -15.9148,-1.691 -2.3034,-0.1849 -8.8054,-0.735 -14.4489,-1.2223 -22.1828,-2.0015 -35.9959,-1.9318 -57.7959,-2.9673 -25.1771,-1.2159 -45.1855,-0.6907 -56.33,1.4787 -7.4254,1.4454 -12.0496,2.5541 -21.7781,5.2214 -20.4798,6.538 -32.7825,10.6762 -52.3007,15.4795 -3.3234,-0.1482 41.3026,-17.9879 44.9967,-17.9879 2.1231,0 0.3731,-1.1441 -3.1663,-2.07 -4.0788,-1.067 -22.9288,-0.4201 -30.1544,1.0349 -5.5748,1.1225 -11.3135,2.3368 -12.7737,2.7028 -0.8062,0.202 -2.5966,0.5971 -3.9787,0.8781 -4.4451,0.9034 -6.6296,1.5189 -10.0514,2.8319 -1.8428,0.7071 -5.8948,2.0305 -9.0045,2.941 -27.8233,8.1707 -54.3285,23.4072 -81.2554,32.5219 -1.2635,0.4066 -3.805,1.2734 -5.6478,1.9263 -32.4928,11.3572 -66.0959,14.1965 -99.0487,12.9538 z"
       style="display:inline;fill:#70e5ff;fill-opacity:1;stroke-width:0.41881055"
       inkscape:connector-curvature="0" />
  </g>
  <g
     inkscape:label="Image 3"
     id="layer3"
     inkscape:groupmode="layer"
     style="display:inline">
    <path
       sodipodi:nodetypes="cssssssssscc"
       id="path2009"
       d="m 919.9984,999.29565 c -597.1465,-5.2642 -471.7147,42.32945 -707.7017,28.25385 -189.7414,-11.3172 -380.0575,45.7143 -570.1356,46.1424 -128.3473,0.2891 -256.6979,-44.2087 -385.00387,-40.9391 -73.0973,1.8628 -245.27387,-76.43542 -260.24013,-148.00847 -28.9782,-138.58214 214.5419,-238.68129 442.8122,-333.7583 195.9128,-81.59978 252.2725,-85.32785 453.6647,-152.27235 45.7643,-15.21243 84.0283,-34.66534 152.7014,-47.9032 42.9526,-8.27983 143.131,55.04568 191.8189,48.11291 177.4317,-25.26486 415.3308,-117.71665 524.9096,-126.44052 25.461,-2.02701 130.0187,59.29842 146.6709,78.66526 -0.6223,191.59419 10.5036,648.14752 10.5036,648.14752"
       style="display:inline;fill:#4cb593;fill-opacity:1;stroke:#27343a;stroke-width:4;stroke-linecap:butt;stroke-linejoin:miter;stroke-miterlimit:4;stroke-dasharray:none;stroke-opacity:1"
       inkscape:connector-curvature="0" />
    <path
       id="path2376"
       style="display:inline;fill:#fae9b4"
       d="m -987.82614,492.50985 c 0.10725,0.37338 0.31205,0.92283 0.61524,1.63867 0.46175,0.32414 0.92228,0.64964 1.38281,0.97461 -0.0277,-0.0532 -0.048,-0.10084 -0.0762,-0.1543 -0.26109,-0.4949 -0.48489,-0.89516 -0.69727,-1.26758 -0.39034,-0.39104 -0.78838,-0.78333 -1.22461,-1.1914 z"
       inkscape:connector-curvature="0" />
    <path
       sodipodi:nodetypes="ssss"
       id="path1990"
       d="m -809.18776,160.87511 c 175.08276,-0.13921 461.28276,-0.13921 636.00006,1e-5 174.7173,0.13921 31.4678,0.25311 -318.3322,0.25311 -349.80002,0 -492.75055,-0.1139 -317.66786,-0.25312 z"
       style="display:inline;fill:#9ce3fb"
       inkscape:connector-curvature="0" />
    <path
       id="path1986"
       style="display:inline;fill:#9ce3fb"
       d="m -1422.0527,160.76766 c -42.5938,-1e-5 -85.2334,0.0364 -117.6367,0.10742 -64.8066,0.14205 -12.0801,0.2578 117.1699,0.25781 50.7188,0 85.4731,-0.0224 110.2246,-0.0527 -0.017,-0.0723 -0.034,-0.14449 -0.051,-0.2168 -31.266,-0.0615 -70.0891,-0.0957 -109.707,-0.0957 z m 114.8105,0.10351 c 0.013,0.0668 0.026,0.13842 0.039,0.20508 33.9251,-0.0474 40.0133,-0.11851 2.5136,-0.20117 -0.7506,-0.002 -1.7911,-0.002 -2.5527,-0.004 z"
       inkscape:connector-curvature="0" />
    <path
       sodipodi:nodetypes="ssss"
       id="path1750"
       d="m -395.1475,516.87508 c -1.2438,-1.58606 -1.2085,-1.62143 0.3776,-0.37756 0.9625,0.75485 1.75,1.54235 1.75,1.75 0,0.82304 -0.8212,0.29331 -2.1276,-1.37244 z"
       style="display:inline;fill:#9ce3fb"
       inkscape:connector-curvature="0" />
    <path
       id="path1744"
       style="display:inline;fill:#9ce3fb"
       d="m -895.5195,516.5157 -2,0.98047 c -1.1,0.54004 -2.9,1.71569 -4,2.61133 l -2,1.62696 2,-0.98047 c 1.1,-0.54004 2.9,-1.71569 4,-2.61133 z"
       inkscape:connector-curvature="0" />
    <path
       id="path1738"
       style="display:inline;fill:#9ce3fb"
       d="m -903.5195,521.5157 -2,0.98047 c -1.1,0.54004 -2.9,1.71569 -4,2.61133 l -2,1.62696 2,-0.98047 c 1.1,-0.54004 2.9,-1.71569 4,-2.61133 z"
       inkscape:connector-curvature="0" />
    <path
       id="path1734"
       style="display:inline;fill:#9ce3fb"
       d="m -912.1777,526.94539 c -0.30469,-0.0162 -1.0168,0.23817 -1.8418,0.67969 -1.1,0.5887 -2,1.29531 -2,1.57031 0,0.275 0.9,0.0184 2,-0.57031 1.1,-0.5887 2,-1.29531 2,-1.57031 0,-0.0688 -0.0566,-0.10397 -0.1582,-0.10938 z"
       inkscape:connector-curvature="0" />
    <path
       id="path1728"
       style="display:inline;fill:#9ce3fb"
       d="m -913.66208,534.62508 c -0.53654,0 -1.84839,0.69934 -2.91601,1.55469 -1.83031,1.46637 -1.79868,1.48788 0.55859,0.36523 3.06103,-1.45781 3.62796,-1.91992 2.35742,-1.91992 z"
       inkscape:connector-curvature="0" />
    <path
       id="path1726"
       style="display:inline;fill:#9ce3fb"
       d="m -922.1777,539.94539 c -0.30469,-0.0162 -1.0168,0.23817 -1.8418,0.67969 -1.1,0.5887 -2,1.29531 -2,1.57031 0,0.275 0.9,0.0184 2,-0.57031 1.1,-0.5887 2,-1.29531 2,-1.57031 0,-0.0688 -0.0566,-0.10397 -0.1582,-0.10938 z"
       inkscape:connector-curvature="0" />
    <path
       id="path1724"
       style="display:inline;fill:#9ce3fb"
       d="m -932.16989,545.9161 c -0.0738,-0.0482 -0.67097,0.22773 -1.84961,0.78906 -1.375,0.65484 -2.6888,1.35419 -2.91797,1.55469 -1.37232,1.20066 1.88357,0.0868 3.47657,-1.18946 0.91515,-0.73318 1.36486,-1.10612 1.29101,-1.15429 z"
       inkscape:connector-curvature="0" />
    <path
       id="path1722"
       style="display:inline;fill:#9ce3fb"
       d="m -942.0195,550.33406 c -0.20318,0.0531 -0.38712,0.1145 -0.57226,0.17383 0.3322,0.28634 0.66376,0.57318 0.99609,0.85938 0.0501,-0.0179 0.10216,-0.0334 0.15039,-0.0527 -0.19276,-0.33687 -0.38299,-0.66094 -0.57226,-0.98047 -7.1e-4,1.9e-4 -10e-4,-1.8e-4 -0.002,0 z"
       inkscape:connector-curvature="0" />
    <path
       id="path1718"
       style="display:inline;fill:#9ce3fb"
       d="m -921.14059,442.75203 c -0.54375,-0.007 -1.12289,0.0529 -1.60938,0.17969 -0.97297,0.25354 -0.41953,0.47767 1.23047,0.49805 1.65,0.0204 2.44656,-0.18701 1.76953,-0.46094 -0.33851,-0.13696 -0.84687,-0.21008 -1.39062,-0.2168 z"
       inkscape:connector-curvature="0" />
    <path
       id="path1686"
       style="display:inline;fill:#9ce3fb"
       d="m -1654.0781,609.62508 c -0.5824,0 -0.7813,0.45 -0.4414,1 0.3399,0.55 0.8161,1 1.0586,1 0.2425,0 0.4414,-0.45 0.4414,-1 0,-0.55 -0.4761,-1 -1.0586,-1 z"
       inkscape:connector-curvature="0" />
    <path
       id="path1604"
       style="display:inline;fill:#9ce3fb"
       d="m -1367.0195,400.7657 c -0.825,0 -2.4,0.38669 -3.5,0.85938 -1.2606,0.54172 -1.4455,0.85938 -0.5,0.85938 0.825,0 2.4,-0.38669 3.5,-0.85938 1.2606,-0.54172 1.4455,-0.85938 0.5,-0.85938 z"
       inkscape:connector-curvature="0" />
    <path
       id="path1602"
       style="display:inline;fill:#9ce3fb"
       d="m -1648.9375,615.11727 c -0.1793,0.0196 -0.3757,0.0673 -0.582,0.14648 -0.825,0.31659 -1.5,0.75259 -1.5,0.96875 0,0.21615 0.675,0.39258 1.5,0.39258 0.825,0 1.5,-0.43601 1.5,-0.96875 0,-0.39955 -0.3801,-0.59791 -0.918,-0.53906 z"
       inkscape:connector-curvature="0" />
    <g
       style="display:inline"
       id="g15080"
       transform="translate(-1610.9902,1.6250755)" />
    <path
       inkscape:connector-curvature="0"
       style="display:inline;fill:#27343a;stroke:none;stroke-width:3.79999995;stroke-miterlimit:4;stroke-dasharray:none;stroke-opacity:1"
       d="m -984.45504,496.05672 c 0.008,0.0172 0.0158,0.0317 0.0234,0.0488 0.0144,0.0103 0.0286,0.0211 0.043,0.0312 -0.0197,-0.0257 -0.0463,-0.0542 -0.0664,-0.0801 z"
       id="path15058" />
    <path
       inkscape:connector-curvature="0"
       style="display:inline;fill:#27343a;stroke:none;stroke-width:3.79999995;stroke-miterlimit:4;stroke-dasharray:none;stroke-opacity:1"
       d="m -980.40036,505.08992 c 0.10392,0.22881 0.21288,0.46779 0.3086,0.67774 1.26919,1.08383 2.51796,2.14657 3.65625,3.09375 -0.14345,-0.26743 -0.29051,-0.53241 -0.43555,-0.79883 -1.1499,-0.94983 -2.34603,-1.97292 -3.5293,-2.97266 z"
       id="path15056" />
    <path
       inkscape:connector-curvature="0"
       style="display:inline;fill:#27343a;stroke:none;stroke-width:3.79999995;stroke-miterlimit:4;stroke-dasharray:none;stroke-opacity:1"
       d="m -965.10934,529.82625 0.13867,0.39453 c 0.009,0.0108 0.0336,0.0338 0.043,0.0449 -0.0638,-0.1532 -0.11697,-0.28453 -0.18164,-0.43945 z"
       id="path15054" />
    <path
       inkscape:connector-curvature="0"
       style="display:inline;fill:#27343a;stroke:none;stroke-width:3.79999995;stroke-miterlimit:4;stroke-dasharray:none;stroke-opacity:1"
       d="m -944.832,546.33016 c -0.51466,0.30579 -1.04736,0.6089 -1.53515,0.91601 1.19213,1.03477 2.38823,2.06481 3.58398,3.09571 0.19544,-0.0975 0.39755,-0.19946 0.5957,-0.29883 -0.40307,-0.6721 -0.79882,-1.30695 -1.17773,-1.86328 -0.38619,-0.56702 -0.90008,-1.19657 -1.4668,-1.84961 z"
       id="path15052" />
    <path
       inkscape:connector-curvature="0"
       style="display:inline;fill:#27343a;stroke:none;stroke-width:1.59148014;stroke-miterlimit:4;stroke-dasharray:none;stroke-opacity:1"
       d="m 797.8094,1029.5133 c -13.7384,0.04 -27.9273,0.7593 -38.623,2.1472 -9.0902,1.1797 -32.2309,5.9401 -39.9964,8.2282 -2.649,0.7805 -7.1384,1.978 -9.9762,2.6609 -6.265,1.5077 -11.4286,2.9863 -22.691,6.4973 -4.7221,1.4723 -10.6587,3.2384 -13.1925,3.9247 -5.67,1.5358 -15.3359,5.0083 -22.7328,8.1676 -3.0588,1.3065 -7.9588,3.0407 -10.889,3.8536 -6.1771,1.7137 -13.1214,4.0317 -20.8236,6.9512 -2.9945,1.1351 -8.083,2.8004 -11.3079,3.7006 -6.8875,1.9228 -11.4197,3.3878 -23.7356,7.6728 -5.7282,1.993 -13.2225,4.1764 -20.3123,5.9181 -6.1792,1.518 -17.5487,4.3418 -25.2652,6.2748 -15.3198,3.8378 -23.3512,6.3737 -32.6673,7.7447 -3.34,0.4916 -8.1458,1.365 -10.6796,1.9411 -15.8339,3.6003 -16.9262,2.8924 -31.4108,2.8777 -13.6414,-0.014 -19.9011,-0.753 -27.8853,-3.2932 -4.0514,-1.289 -6.4572,-1.5399 -6.4572,-0.6732 0,1.5894 7.5399,3.7337 18.2183,5.1811 2.8061,0.3804 8.4896,0.6105 15.7054,0.6364 12.8755,0.046 17.2612,0.402 29.9539,-2.4515 4.0363,-0.9074 10.5383,-2.143 14.449,-2.746 9.0646,-1.3975 17.5873,-4.0858 32.03,-7.793 6.3345,-1.6259 17.077,-4.3376 23.8722,-6.0261 9.1147,-2.2648 15.3494,-4.1208 23.7724,-7.0772 6.2795,-2.2042 14.6677,-4.9353 18.6412,-6.0695 3.9735,-1.1343 9.2961,-2.8452 11.8273,-3.802 8.7705,-3.3153 16.3425,-5.9797 19.2604,-6.7763 5.387,-1.4707 12.1061,-3.8019 16.1242,-5.5942 5.0212,-2.2397 14.6223,-5.6375 21.1499,-7.4854 2.7641,-0.7825 10.397,-3.0481 16.9618,-5.0339 6.5649,-1.9859 14.2919,-4.1845 17.1713,-4.8867 2.8793,-0.7021 7.4194,-1.923 10.089,-2.7132 5.6866,-1.6833 16.2924,-4.1011 27.1851,-6.1971 18.691,-3.5966 27.5581,-4.3417 54.8642,-4.6078 17.7329,-0.1728 26.0077,0.4096 43.6683,3.0732 1.5592,0.2351 4.1977,0.404 5.8634,0.3746 l 3.029,-0.054 -2.9317,-0.3591 c -5.1883,-0.6358 -9.4824,-1.2287 -16.3393,-2.2552 -8.8934,-1.3314 -22.1811,-1.971 -35.9196,-1.9313 z"
       id="path15050" />
    <path
       style="display:inline;fill:#27343a;stroke:none;stroke-width:2.02996612;stroke-miterlimit:4;stroke-dasharray:none;stroke-opacity:1"
       d="m 479.73331,1315.9651 c -2.85846,0 -5.84268,0.013 -8.96871,0.023 -9.99145,-0.9008 -46.58987,2.2385 -26.04651,2.5948 19.1456,-0.718 57.35819,-0.7413 69.0122,0.2274 24.68913,2.0522 45.51949,5.6074 78.29802,13.3645 3.08515,0.73 14.14311,3.1181 24.57339,5.3065 30.20305,6.3371 51.14902,11.6306 71.85011,18.1586 9.14187,2.8829 26.5409,8.0443 44.33877,13.1527 5.28848,1.5179 14.06286,4.0705 19.49829,5.6718 5.43557,1.6011 18.65699,5.0625 29.38118,7.6927 38.95435,9.5534 56.6306,14.3668 71.58305,19.4921 9.27125,3.1777 22.2315,7.0689 36.59277,10.9876 5.28861,1.4428 10.69736,2.9687 12.01951,3.3898 8.59331,2.7371 37.91744,8.2352 65.70675,12.32 11.99557,1.7634 22.31857,3.4298 24.57327,3.968 2.062,0.4921 4.5818,0.688 4.2215,0.3276 -0.3408,-0.3407 -16.7654,-3.3079 -25.0554,-4.5261 -31.7219,-4.6618 -59.70983,-10.4986 -83.33533,-17.3793 -7.7861,-2.2676 -16.56023,-4.8115 -19.49842,-5.6529 -2.93809,-0.8413 -9.18826,-2.8814 -13.88921,-4.5334 -15.34665,-5.3929 -34.28875,-10.6251 -72.65142,-20.0693 -9.69581,-2.3869 -24.11914,-6.2605 -32.0522,-8.6076 -7.93267,-2.3471 -18.63028,-5.463 -23.77183,-6.9248 -10.42552,-2.9638 -21.60346,-6.3294 -37.92834,-11.4186 -16.65376,-5.1914 -22.66608,-6.8694 -38.12244,-10.6392 -13.17666,-3.2137 -18.11396,-4.3169 -44.41173,-9.9296 -5.28862,-1.1287 -17.6686,-3.8525 -27.51135,-6.0524 -40.91796,-9.1463 -55.52748,-10.9432 -98.40592,-10.9429 z"
       id="path15048"
       inkscape:connector-curvature="0" />
    <path
       inkscape:connector-curvature="0"
       style="display:inline;fill:#27343a;stroke:none;stroke-width:3.79999995;stroke-miterlimit:4;stroke-dasharray:none;stroke-opacity:1"
       d="m 250.8965,1440.7481 c -0.3474,-0.014 -0.7425,0.049 -1.1035,0.1934 -0.7977,0.3192 -0.5615,0.5575 0.6035,0.6055 1.0541,0.043 1.6448,-0.1931 1.3125,-0.5254 -0.1661,-0.1662 -0.4651,-0.2591 -0.8125,-0.2735 z"
       id="path1508" />
    <path
       inkscape:connector-curvature="0"
       sodipodi:nodetypes="cccccccssscssssssccccsccc"
       id="path1520"
       d="m 331.05003,1337.5809 c 2.20359,-0.2769 5.5691,-0.7213 7.47892,-0.9877 46.77493,-9.7985 100.20628,-17.6415 132.968,-17.4675 34.40575,0.2049 42.72184,0.4978 53.46834,1.8841 105.86101,12.5292 199.00365,47.469 280.63332,68.6295 6.31699,1.6305 23.1582,10.8899 23.28797,11.0172 -40.67598,-7.2215 -99.56446,-8.0266 -142.01057,-11.4417 -0.46705,-0.1442 -5.53663,-0.6326 -11.26583,-1.0848 -13.54165,-1.0692 -26.29766,-2.2195 -32.31914,-2.9144 -6.56123,-0.757 -62.60267,-5.2984 -73.18579,-5.9306 -4.70096,-0.2808 -12.63376,-0.7569 -17.62861,-1.058 -22.38723,-1.3496 -35.41368,-1.7386 -68.75216,-2.0532 -27.42497,-0.2586 -35.78545,-0.4898 -36.29914,-1.0038 -0.53362,-0.5342 -0.46692,-0.6676 0.33239,-0.6676 0.5498,0 1.3792,-0.3346 1.84299,-0.7435 0.46392,-0.4087 4.44919,-2.8493 8.8565,-5.4234 4.40718,-2.5741 9.91496,-5.9826 12.23955,-7.5743 2.32483,-1.5919 6.08028,-3.8263 8.34581,-4.9653 12.42211,-5.5615 -7.37071,-7.2976 -11.77101,-8.055 -14.59372,-2.4739 -53.21054,-0.2247 -84.1368,4.9007 -115.49224,15.3263 -231.88247,82.2071 -322.709673,123.787 -4.432887,1.4723 -9.480019,3.3931 -11.215809,4.2685 -12.735941,6.4238 -27.561,11.872 -32.244776,11.8498 -5.310435,0.3832 -1.724004,-0.6847 0.776241,-2.0384 84.004397,-54.4146 220.251397,-130.9419 313.309277,-152.9276 z"
       style="display:inline;fill:#70e5ff;fill-opacity:1;stroke:none;stroke-width:0.53420162;stroke-opacity:1" />
    <g
       transform="matrix(0.53420163,0,0,0.53420163,-53.600931,638.48545)"
       style="opacity:1;stroke:#27343a;stroke-width:4;stroke-miterlimit:4;stroke-dasharray:none;stroke-opacity:1"
       id="g6190">
      <g
         id="g6131"
         style="stroke:#27343a;stroke-width:4;stroke-miterlimit:4;stroke-dasharray:none;stroke-opacity:1">
        <path
           style="fill:#552200;stroke:#27343a;stroke-width:4;stroke-linecap:butt;stroke-linejoin:miter;stroke-miterlimit:4;stroke-dasharray:none;stroke-opacity:1"
           d="m 842.05438,987.67372 c 13.88476,39.54248 36.09418,81.85328 27.06949,122.77948 -9.16026,41.541 -46.00675,72.7407 -77.34139,101.5105 -38.52388,35.3706 -84.40055,63.4522 -132.44713,84.1088 -54.64263,23.4925 -113.65369,40.4013 -173.05136,43.5045 -47.78737,2.4967 -102.63548,6.7395 -142.11481,-20.3021 -17.61286,-12.064 -31.35353,-55.8457 -31.35353,-55.8457 0,0 8.09439,14.7273 13.95172,17.175 17.79527,7.4365 37.76105,9.2193 57.03928,9.6677 22.66442,0.5272 45.39883,-2.557 67.67371,-6.7674 30.71952,-5.8066 61.57954,-12.291 90.87614,-23.2024 34.17287,-12.7276 67.53206,-28.2973 98.61027,-47.3716 30.15928,-18.5103 57.34754,-41.6229 84.10876,-64.7734 13.96913,-12.0844 27.7693,-25.0352 37.70393,-40.6042 11.95075,-18.7285 21.53252,-39.3918 27.06948,-60.9064 5.89002,-22.8864 6.76732,-46.9425 6.76738,-70.57399 5e-5,-17.22795 -4.51059,-34.16012 9.18429,-61.87312 9.23725,-18.69252 27.20565,47.70614 36.25377,73.47433 z"
           id="path6124"
           inkscape:connector-curvature="0"
           sodipodi:nodetypes="sssssscsssssssssss" />
        <path
           style="fill:#a15c57;fill-opacity:1;stroke:#27343a;stroke-width:4;stroke-linecap:butt;stroke-linejoin:miter;stroke-miterlimit:4;stroke-dasharray:none;stroke-opacity:1"
           d="m 866.16329,957.50231 c 4.81404,4.18974 12.82854,7.57274 20.94726,9.10365 8.11873,1.5309 16.33385,1.20874 25.59963,-0.92661 9.26577,-2.13536 19.57593,-6.08221 26.98826,-13.19311 7.41234,-7.11091 11.92301,-17.38073 14.50104,-28.09615 2.57802,-10.71541 3.22252,-21.87341 -3.06163,-37.01916 -6.28415,-15.14574 -19.49703,-34.28025 -35.12574,-46.10244 -15.62872,-11.82219 -33.67658,-16.33416 -48.98278,-18.1065 -15.3062,-1.77235 -27.875,-0.80552 -42.53722,6.44481 -14.66221,7.25032 -31.41995,20.78542 -36.89871,42.21531 -5.47875,21.42989 0.32201,50.75593 7.08928,76.69723 6.76727,25.9413 14.50176,48.5002 18.36875,71.05736 3.867,22.5572 3.867,45.1163 -0.64435,68.318 -4.51136,23.2018 -13.5349,47.0497 -31.58071,69.6073 -18.04581,22.5575 -45.11646,43.8273 -72.18532,62.3567 -27.06885,18.5293 -54.13943,34.3205 -82.81964,47.855 -28.68021,13.5346 -58.97347,24.814 -88.29818,32.7091 -29.32472,7.8952 -57.68577,12.4072 -76.91922,14.5824 -19.23345,2.1751 -29.34423,2.0139 -42.23449,1.1681 -12.89027,-0.8459 -28.55997,-2.3767 -44.2903,-6.9688 -15.73034,-4.5921 -31.52019,-12.2453 -41.82952,-20.7642 -10.30934,-8.5189 -15.13467,-17.8993 -17.30616,-25.1519 -2.17148,-7.2526 -1.68741,-12.3697 1.05306,-21.0528 2.74047,-8.6831 7.73545,-20.9268 10.93123,-34.3013 3.19578,-13.3745 4.5913,-27.8741 3.49252,-38.182 -1.09878,-10.308 -4.69138,-16.4215 -10.18449,-21.0334 -5.49311,-4.6119 -12.88712,-7.7222 -21.2992,-7.5659 -8.41207,0.1564 -17.8437,3.5803 -28.85532,8.2654 -11.01161,4.6851 -23.60471,10.632 -34.98358,20.8604 -11.37887,10.2284 -21.54304,24.7389 -25.70406,37.7555 -4.16101,13.0166 -2.31834,24.5367 3.09583,29.8159 5.41416,5.2793 14.39306,4.3129 23.72347,1.3737 9.33041,-2.9391 19.00458,-7.8482 25.67167,-15.428 6.6671,-7.5798 10.32415,-17.8277 6.71657,-22.2035 -3.60757,-4.3758 -14.48162,-2.8802 -25.35454,-1.3848 7.21585,-4.7822 14.71127,-9.7497 21.72387,-11.0815 7.0126,-1.3318 14.10363,0.6022 19.74251,4.4688 5.63888,3.8666 9.82858,9.6677 10.7955,17.7238 0.96692,8.0561 -1.28879,18.3679 -6.28406,32.3871 -4.99527,14.0191 -12.72851,31.7411 -17.2403,44.1482 -4.51179,12.4072 -5.80073,19.4964 -5.31736,28.0371 0.48338,8.5408 2.7388,18.5291 6.76729,26.4249 4.0285,7.8959 9.82869,13.6961 19.01327,18.8523 9.18458,5.1562 21.75257,9.6677 42.05419,13.5347 20.30162,3.8669 48.33914,7.0896 70.89684,8.7009 22.55771,1.6112 39.6378,1.6112 59.45594,-0.1612 19.81813,-1.7724 42.37736,-5.3174 71.54065,-12.0846 29.16328,-6.7672 64.93547,-16.7576 107.35157,-31.6214 42.4161,-14.8638 91.48119,-34.6027 131.62212,-55.3279 40.14094,-20.7252 71.35949,-42.4372 91.88309,-58.2279 20.5236,-15.7906 30.35241,-25.6597 37.74389,-36.5158 7.39147,-10.856 12.34617,-22.6989 14.46074,-36.5147 2.11457,-13.8159 1.38943,-29.608 -2.07489,-47.2915 -3.46432,-17.6836 -9.66776,-37.2607 -19.25482,-54.8033 -9.58705,-17.5425 -22.55787,-33.0511 -33.91742,-50.3322 -11.35956,-17.28105 -21.10781,-36.33446 -25.33727,-51.98423 -4.22946,-15.64976 -2.94041,-27.89575 2.21582,-36.43509 5.15622,-8.53933 14.18019,-13.3736 23.32355,-16.49513 9.14337,-3.12152 18.40945,-4.53158 26.58609,-1.12771 8.17664,3.40387 15.2662,11.62132 18.81108,19.33493 3.54488,7.71361 3.54488,14.92402 1.08813,21.4698 -2.45675,6.54578 -7.37006,12.42565 -13.43373,15.85084 -6.06368,3.42519 -13.27137,4.39158 -20.02016,2.67946 -6.7488,-1.71212 -13.03195,-6.10227 -19.31594,-10.49301 1.61128,4.99496 3.22236,9.98932 8.0364,14.17905 z"
           id="path6103"
           inkscape:connector-curvature="0"
           inkscape:original-d="m 862.96073,958.30815 c 8.01711,3.38269 16.03161,6.7657 24.04834,10.15107 8.22017,-0.32332 16.43529,-0.64548 24.65256,-0.96677 10.31412,-3.94899 20.62427,-7.89585 30.93656,-11.84291 4.51306,-10.274 9.02373,-20.54382 13.53474,-30.8157 0.64551,-11.15911 1.29002,-22.31711 1.93353,-33.47432 -13.21161,-19.13512 -26.42449,-38.26963 -39.63746,-57.40182 -18.04532,-4.51258 -36.09318,-9.02454 -54.13897,-13.53474 -12.56697,0.96577 -25.13577,1.9326 -37.70393,2.9003 -16.7563,13.53374 -33.51404,27.06884 -50.2719,40.60423 5.8016,29.32428 11.60236,58.65032 17.40181,87.97583 7.73514,22.55691 15.46962,45.11581 23.20242,67.67368 0.001,22.5569 0.001,45.116 0,67.6738 -9.02216,23.8459 -18.04569,47.6938 -27.06949,71.5407 -27.06848,21.2679 -54.13915,42.5377 -81.20846,63.8067 -27.06848,15.7895 -54.13904,31.5807 -81.20845,47.3716 -30.29105,11.2779 -60.5843,22.5573 -90.87614,33.8368 -28.35751,4.5106 -56.71856,9.0226 -85.07553,13.5348 -10.10978,-0.1621 -20.22056,-0.3233 -30.33233,-0.4834 -15.66868,-1.5317 -31.33838,-3.0624 -47.00906,-4.5922 -15.78953,-7.6545 -31.57935,-15.3078 -47.3716,-22.9607 -4.8258,-9.3843 -9.65116,-18.7647 -14.47973,-28.1485 0.48532,-5.1207 0.96939,-10.2378 1.45266,-15.356 4.99729,-12.2479 9.99225,-24.4916 14.98741,-36.7372 1.3968,-14.5035 2.79231,-29.0031 4.1871,-43.5045 -3.59207,-6.1153 -7.18469,-12.2288 -10.77854,-18.3418 -7.39301,-3.1113 -14.78702,-6.2216 -22.18203,-9.3309 -9.42987,3.4226 -18.8615,6.8465 -28.29261,10.2709 -12.59212,5.9459 -25.18519,11.8929 -37.77931,17.8408 -10.16321,14.5095 -20.32741,29.0199 -30.49256,43.5313 1.84405,11.5215 3.68673,23.0416 5.52916,34.5674 8.98467,-0.968 17.96358,-1.9344 26.94551,-2.9003 9.67879,-4.9119 19.35296,-9.821 29.02983,-14.731 3.65808,-10.249 7.31514,-20.4969 10.97121,-30.7439 -10.87192,1.4944 -32.61877,4.4862 -32.61877,4.4862 0,0 14.71112,-9.7499 21.64756,-14.3466 7.08922,1.9322 14.18026,3.8661 21.26888,5.8006 4.18993,5.7991 8.37965,11.6002 12.56798,17.4018 -2.25486,10.3116 -4.51058,20.6234 -6.76737,30.9366 -7.73401,17.7251 -15.46728,35.4471 -23.20242,53.1722 -1.28811,7.0891 -2.57705,14.1783 -3.86707,21.2689 2.25715,9.9905 4.51258,19.9788 6.76737,29.9698 5.80203,5.8 11.60221,11.6002 17.40181,17.4018 12.56898,4.5106 25.13696,9.0222 37.70393,13.5347 28.03599,3.2214 56.07351,6.4441 84.10876,9.6677 17.08003,-10e-4 34.16012,-10e-4 51.23867,0 22.55759,-3.5456 45.11682,-7.0906 67.67372,-10.6344 35.7696,-9.9905 71.54179,-19.9809 107.31118,-29.9698 49.06282,-19.7385 98.12789,-39.4774 147.19033,-59.2146 31.21953,-21.7129 62.43806,-43.4249 93.65559,-65.1359 9.8298,-9.8701 19.65862,-19.7392 29.4864,-29.6073 4.95568,-11.8438 9.91037,-23.6867 14.86405,-35.5286 -0.724,-15.79 -1.44915,-31.5821 -2.17522,-47.3716 -6.20241,-19.578 -12.40585,-39.1551 -18.61027,-58.7311 -12.9698,-15.5096 -25.94061,-31.0182 -38.91239,-46.5257 -9.74722,-19.05437 -19.49547,-38.10778 -29.24471,-57.16015 1.28999,-12.24645 2.57904,-24.49244 3.86707,-36.73716 9.02335,-4.8344 18.04732,-9.66867 27.06948,-14.50151 9.26463,-1.41068 18.53071,-2.82074 27.79457,-4.22961 7.09062,8.21652 14.18018,16.43396 21.26887,24.65257 10e-4,7.20954 10e-4,14.41995 0,21.63142 -4.9134,5.88017 -9.82671,11.76004 -14.7432,17.64351 -7.21107,0.96598 -14.41876,1.93237 -21.63142,2.9003 -6.28402,-4.39246 -18.85196,-13.17221 -18.85196,-13.17221 0,0 3.22356,9.98893 4.83384,14.98489 z"
           inkscape:path-effect="#path-effect6105"
           sodipodi:nodetypes="cccccccccccccccccccccccccccccccccsccccccccccccccccccccccccccccccc" />
      </g>
      <g
         transform="matrix(1,0,0,0.7896023,39.534743,267.33912)"
         id="g6174"
         style="stroke:#27343a;stroke-width:4.50148487;stroke-miterlimit:4;stroke-dasharray:none;stroke-opacity:1">
        <g
           style="opacity:1;stroke:#27343a;stroke-width:4.50148487;stroke-miterlimit:4;stroke-dasharray:none;stroke-opacity:1"
           id="g6152">
          <path
             sodipodi:nodetypes="ccccc"
             inkscape:connector-curvature="0"
             id="path6118"
             d="m 118.94775,1167.6091 c 333.66979,-257.25302 601.56356,-151.165 712.31929,57.4231 79.29246,-129.5403 58.28692,-638.744 -97.0723,-884.58845 -142.50105,6.87024 -286.57396,5.40968 -424.82918,34.78283 74.6286,242.0691 -58.79332,603.52469 -190.41781,792.38252 z"
             style="fill:#ffffff;stroke:#27343a;stroke-width:4.50148487;stroke-linecap:butt;stroke-linejoin:miter;stroke-miterlimit:4;stroke-dasharray:none;stroke-opacity:1" />
          <path
             sodipodi:nodetypes="cc"
             inkscape:connector-curvature="0"
             id="path6139"
             d="m 426.57125,360.26837 c 38.34582,144.38791 40.84686,448.49724 4.78525,658.99793"
             style="opacity:1;fill:none;stroke:#27343a;stroke-width:4.50148487;stroke-linecap:butt;stroke-linejoin:miter;stroke-miterlimit:4;stroke-dasharray:none;stroke-opacity:1" />
          <path
             sodipodi:nodetypes="cc"
             inkscape:connector-curvature="0"
             id="path6143"
             d="m 631.65358,345.91261 c 90.34549,282.40767 99.19268,587.20386 43.06728,716.42089"
             style="fill:none;stroke:#27343a;stroke-width:4.50148487;stroke-linecap:butt;stroke-linejoin:miter;stroke-miterlimit:4;stroke-dasharray:none;stroke-opacity:1" />
        </g>
        <g
           id="g6161"
           style="stroke:#27343a;stroke-width:4.50148487;stroke-miterlimit:4;stroke-dasharray:none;stroke-opacity:1">
          <path
             sodipodi:nodetypes="cccc"
             inkscape:connector-curvature="0"
             id="path6145"
             d="M 509.96979,111.78247 348.63996,301.1363 537.99931,192.44266 Z"
             style="fill:#3560b8;fill-opacity:1;stroke:#27343a;stroke-width:4.50148487;stroke-linecap:butt;stroke-linejoin:miter;stroke-miterlimit:4;stroke-dasharray:none;stroke-opacity:1" />
          <path
             sodipodi:nodetypes="ccccccccccccc"
             inkscape:connector-curvature="0"
             id="path6116"
             d="m 576.96495,1181.2813 c 30.92917,-106.994 17.27047,-655.84168 -5.46886,-831.26704 14.1509,-1.28782 162.69865,-9.57051 162.69865,-9.57051 l -8.5451,-15.72298 -155.52076,8.20329 C 560.21756,242.3658 546.674,161.30723 524.95468,101.63142 l -14.98489,10.15105 c 22.26608,63.78121 32.2631,142.46056 42.05438,221.38973 -100.43793,8.75545 -199.65957,17.57274 -247.49245,29.00302 l 4.83384,13.05136 c 75.11606,-11.99881 159.67657,-17.38652 243.62538,-23.20241 20.21702,276.67615 41.12162,498.8922 -1.45015,839.63743 z"
             style="fill:#a15c57;fill-opacity:1;stroke:#27343a;stroke-width:4.50148487;stroke-linecap:butt;stroke-linejoin:miter;stroke-miterlimit:4;stroke-dasharray:none;stroke-opacity:1" />
        </g>
      </g>
    </g>
    <g
       id="g15129"
       transform="matrix(0.72022948,0,0,0.72022948,-991.36336,126.32769)">
      <path
         inkscape:connector-curvature="0"
         style="display:inline;fill:#ffffff;stroke:#27343a;stroke-width:4;stroke-miterlimit:4;stroke-dasharray:none;stroke-opacity:1"
         d="m 1522.0999,669.99589 c -0.4558,-1.18898 -0.6433,-34.57252 -0.4163,-74.18565 l 0.4127,-72.02387 h 10.2891 10.2892 l 0.8397,59.36033 c 0.4619,32.64818 0.9962,59.53842 1.1872,59.75607 1.3602,1.54932 5.3228,-1.62836 20.7636,-16.65073 l 17.5215,-17.04647 0.4221,-42.7096 0.4224,-42.7096 h 10.2891 10.2891 l 0.4695,40.36502 c 0.6458,55.5457 1.9488,50.56098 -18.3789,70.31365 -35.2069,34.21102 -37.726,35.94806 -53.6982,37.02619 -7.3597,0.49679 -10.0838,0.11619 -10.7018,-1.49534 z m 99.6551,-0.1831 c -0.4172,-1.08827 -0.573,-34.38942 -0.346,-74.00255 l 0.4127,-72.02387 8.2629,-0.47682 c 15.9289,-0.91916 14.6897,-7.14674 14.6897,73.82273 0,53.00284 -0.4787,71.33882 -1.8995,72.75966 -2.5772,2.57722 -20.1263,2.51146 -21.1198,-0.0792 z m 41.487,0.92338 c -1.3186,-1.31855 -1.4099,-141.80936 -0.095,-145.23739 1.0325,-2.69089 16.9525,-3.64618 20.7318,-1.24404 1.1495,0.73072 2.0917,6.1665 2.3744,13.69948 0.6002,15.99995 1.5975,16.18052 15.7958,2.86006 18.6639,-17.50984 19.2109,-17.81938 31.4895,-17.81938 12.5877,0 14.781,1.9381 8.3909,7.4147 -10.7365,9.20165 -22.7574,21.51262 -22.7574,23.30648 0,1.06748 5.6592,7.37536 12.5759,14.01751 15.3279,14.71962 14.5896,11.40323 14.0027,62.90138 l -0.46,40.36503 -9.3508,0.48216 c -6.4093,0.33047 -9.7629,-0.16748 -10.6606,-1.58294 -0.7204,-1.13581 -1.3208,-19.81385 -1.3341,-41.50676 l -0.024,-39.44163 -10.0252,-10.02531 c -11.8287,-11.82867 -11.0168,-11.69025 -20.0507,-3.418 l -7.1232,6.52264 -0.4692,43.64537 c -0.3422,31.85413 -0.9838,43.97254 -2.3744,44.85642 -2.3466,1.49158 -19.1827,1.6582 -20.6367,0.20422 z m 104.1437,-0.92338 c -0.4173,-1.08827 -0.573,-34.38942 -0.346,-74.00255 l 0.4127,-72.02387 9.2355,-0.47872 c 5.447,-0.28235 10.1545,0.28416 11.4763,1.38103 3.5757,2.96763 3.3205,144.76681 -0.2631,146.14196 -4.6845,1.79766 -19.7219,1.05161 -20.5154,-1.01785 z m 41.4294,-1.58294 c -1.2515,-4.66957 -1.2863,-139.47532 -0.036,-142.73107 1.2763,-3.32622 17.063,-3.40963 24.9084,-0.13154 3.1227,1.30474 11.7541,7.79318 19.181,14.41876 16.7454,14.93889 17.9798,14.74872 18.598,-2.86558 l 0.4609,-13.13399 8.6581,-0.49052 c 13.4257,-0.76061 12.7116,-4.97332 12.7116,74.99752 0,79.05416 0.8965,73.9808 -12.9307,73.18954 l -8.439,-0.48291 -0.7915,-41.94797 c -0.5347,-28.33997 -1.4064,-43.01942 -2.6873,-45.2508 -3.0152,-5.25286 -32.3835,-32.49508 -34.3317,-31.84617 -1.2427,0.41399 -1.8857,17.80714 -2.1786,58.94347 -0.4657,65.38625 0.5259,60.83125 -13.2506,60.8687 -7.9195,0.0215 -9.0241,-0.37427 -9.8717,-3.53738 z m 101.3659,2.50632 c -0.5804,-0.58041 -1.0553,-27.66289 -1.0553,-60.18326 v -59.12796 l 3.7696,-5.97156 c 12.3439,-19.55394 35.5117,-27.82057 53.8332,-19.20849 9.359,4.39923 24.0509,19.1759 25.306,25.45211 1.6023,8.01092 1.1335,29.58943 -0.6669,30.70211 -2.5932,1.60269 -19.0759,-16.28952 -20.8176,-22.5979 -2.0429,-7.39876 -14.775,-20.9769 -19.6698,-20.9769 -2.3423,0 -6.3614,2.72019 -10.864,7.35295 l -7.1464,7.35296 v 44.09267 c 0,34.23711 0.4423,44.085 1.9787,44.05841 2.1694,-0.0375 29.6802,-26.12027 29.6802,-28.13959 0,-0.68785 -2.8493,-4.30625 -6.3318,-8.04085 -6.2023,-6.6514 -6.3318,-7.02915 -6.3318,-18.47854 0,-14.79014 0.2919,-14.71076 22.7803,6.1973 20.9813,19.50696 21.0975,20.1651 6.1084,34.61081 -24.272,23.3921 -40.8961,37.79551 -47.0756,40.78694 -6.3367,3.06757 -21.2074,4.4085 -23.4972,2.11879 z m 99.3949,-0.92338 c -0.4173,-1.08827 -0.5731,-34.38942 -0.3461,-74.00255 l 0.4127,-72.02387 8.263,-0.47682 c 15.045,-0.86816 14.6897,-1.69785 14.6897,34.30195 0,17.23663 0.4516,31.79088 1.0034,32.34277 1.282,1.28206 5.7295,-2.24741 20.923,-16.6046 15.7929,-14.92349 15.1426,-13.5901 16.0642,-32.94241 l 0.7915,-16.62089 9.8446,-0.47001 c 9.1396,-0.43634 9.9078,-0.20963 10.7285,3.16588 0.4862,1.99975 0.6863,35.33431 0.4445,74.07683 L 2091.9555,671 h -10.2891 -10.2891 l -0.4032,-38.78209 c -0.2216,-21.33015 -0.7487,-39.71192 -1.1711,-40.84839 -1.1174,-3.00609 -3.5662,-1.24589 -21.3866,15.37214 l -15.8212,14.75368 v 23.24853 c 0,15.97161 -0.5946,23.8431 -1.8996,25.14807 -2.5771,2.57722 -20.1263,2.51146 -21.1197,-0.0792 z m 99.9614,-0.52521 c -2.3374,-6.09094 -1.0115,-84.36711 1.5367,-90.73608 2.2713,-5.67648 13.5932,-17.22104 42.7804,-43.62198 9.8358,-8.89688 17.9072,-12.17624 28.6035,-11.6215 l 9.223,0.47835 V 597.39318 671 l -9.3508,0.48216 c -6.4093,0.33047 -9.7629,-0.16748 -10.6606,-1.58294 -0.7204,-1.13581 -1.3208,-14.72716 -1.3341,-30.20298 l -0.024,-28.13788 -4.3531,2.37557 c -2.3942,1.30654 -10.9421,8.6825 -18.9953,16.39099 l -14.6422,14.01543 v 12.76474 c 0,14.57818 -0.098,14.68638 -13.4151,14.68638 -6.2061,0 -8.6589,-0.65556 -9.3682,-2.50389 z m 43.8579,-72.43649 16.916,-16.37152 v -14.49586 c 0,-18.87081 -1.0073,-18.82474 -21.3698,0.9776 l -15.8294,15.39392 -0.5588,13.07556 c -0.9591,22.44074 -0.8829,22.44593 20.842,1.4203 z m 55.6705,69.79581 c -0.5293,-2.82951 -0.7397,-29.71974 -0.4674,-59.75607 l 0.4949,-54.6115 4.5844,-6.33177 c 18.6513,-25.76122 42.6916,-29.85116 64.4132,-10.95852 11.1652,9.71106 14.1069,14.44036 14.1069,22.67908 v 6.48327 h -10.1664 -10.1663 l -1.7865,-5.41318 c -2.1425,-6.49205 -14.4743,-18.33095 -19.0941,-18.33095 -1.8114,0 -6.6354,3.15694 -10.7202,7.01544 l -7.4268,7.01544 v 43.90104 c 0,29.51179 0.5499,44.08483 1.6776,44.46176 0.9227,0.30839 5.1968,-2.86752 9.4976,-7.05756 14.5607,-14.18507 15.431,-14.60607 30.1948,-14.60607 7.2828,0 13.2415,0.31379 13.2415,0.69731 0,0.70342 -21.7886,21.83705 -38.1176,36.9717 -10.0732,9.3365 -18.7466,12.98515 -30.8677,12.98515 -8.2642,0 -8.4549,-0.10448 -9.3979,-5.14457 z m 101.2985,3.24195 c -0.4334,-1.13011 -0.6023,-34.46548 -0.3753,-74.07861 l 0.4126,-72.02387 6.9963,-0.49988 c 13.4166,-0.95863 14.3735,-0.14167 14.3735,12.27265 0,17.33283 2.2147,19.67507 10.3887,10.98728 2.557,-2.7178 9.4758,-9.12872 15.3748,-14.24648 l 10.7253,-9.30504 h 11.7382 c 6.4559,0 12.1413,0.65275 12.6344,1.45056 0.4931,0.7978 -5.5196,7.38096 -13.3616,14.62922 -7.8419,7.24827 -14.2581,13.6054 -14.2581,14.12696 0,0.52155 5.9456,7.01549 13.2124,14.43098 9.1803,9.36818 13.5278,15.06071 14.2465,18.65361 1.5065,7.53265 1.2211,81.17679 -0.3242,83.61299 -0.8977,1.41546 -4.2513,1.91341 -10.6607,1.58294 L 2372.1363,671 l -0.8588,-41.1565 c -0.4723,-22.63608 -1.0065,-41.38655 -1.1872,-41.66771 -1.1837,-1.84247 -17.468,-16.55653 -19.7407,-17.83694 -2.2471,-1.26612 -4.2529,-0.19227 -10.2891,5.50871 l -7.4978,7.08142 -0.7914,44.03551 -0.7915,44.03551 -9.9138,0.47179 c -7.0224,0.33419 -10.1438,-0.12758 -10.7018,-1.58294 z m 129.5491,-1.7036 c -18.1896,-9.66163 -25.829,-20.6449 -25.829,-37.1346 0,-14.27007 0.3245,-14.67937 11.6058,-14.63793 9.2385,0.0339 9.9912,0.95129 10.9636,13.36315 0.8424,10.75233 1.0511,11.19253 8.8157,18.59957 9.7894,9.33832 10.9594,9.36246 19.4992,0.40209 14.4383,-15.14949 14.0826,-16.02535 -18.6173,-45.84405 -13.3664,-12.18866 -26.0947,-24.81713 -28.2848,-28.06329 -17.3579,-25.72636 22.8016,-62.9468 52.4378,-48.60019 12.7246,6.15988 25.5216,20.90352 26.7623,30.8332 1.8707,14.97338 0.8075,16.54585 -11.1885,16.54585 h -10.2591 v -6.41038 c 0,-8.3007 -2.8441,-13.5919 -11.6875,-21.74345 -8.3385,-7.68609 -9.8043,-7.55146 -19.5756,1.79782 -5.8172,5.56594 -6.7275,7.33311 -6.7275,13.06023 0,6.46066 0.5315,7.12303 21.6469,26.97617 32.9152,30.94762 35.0799,33.29863 36.9069,40.08402 2.9315,10.88646 0.6504,17.86977 -9.2817,28.41609 -14.684,15.59178 -32.3742,20.22386 -47.1872,12.3557 z"
         id="path2049" />
      <text
         xml:space="preserve"
         style="font-size:40px;line-height:1.25;font-family:din;-inkscape-font-specification:din;letter-spacing:0px;word-spacing:0px;display:inline;stroke:none;stroke-opacity:1"
         x="1516.4928"
         y="724.66241"
         id="text2053"><tspan
           sodipodi:role="line"
           id="tspan2051"
           x="1516.4928"
           y="724.66241"
           style="font-style:normal;font-variant:normal;font-weight:bold;font-stretch:normal;font-family:din;-inkscape-font-specification:'din Bold';fill:#ffffff;stroke:none;stroke-opacity:1">WWU'S PREMIERE HACKATHON</tspan></text>
      <g
         id="g12977"
         transform="rotate(27.763307,2050.7838,-1553.3416)"
         style="display:inline;stroke-width:4;stroke-miterlimit:4;stroke-dasharray:none">
        <g
           transform="matrix(0.97633129,-0.03738809,-0.03738809,0.9409402,55.71163,88.004442)"
           id="g13074">
          <g
             transform="matrix(0.85670601,-0.47038471,0.43694981,0.92734903,1061.3969,828.63282)"
             id="g13101">
            <path
               sodipodi:nodetypes="cccc"
               inkscape:connector-curvature="0"
               id="path12972"
               d="m 1497.8678,444.43322 c 16.3547,15.83346 33.7998,-72.02691 28.8143,-77.96473 15.513,36.89479 10.2195,72.46371 4.818,99.39323 z"
               style="display:inline;fill:#70e5ff;fill-opacity:1;stroke:#27343a;stroke-width:4.3576479;stroke-linecap:butt;stroke-linejoin:miter;stroke-miterlimit:4;stroke-dasharray:none;stroke-opacity:1" />
            <path
               sodipodi:nodetypes="cccc"
               inkscape:connector-curvature="0"
               id="path12972-2"
               d="m 1460.7833,468.6007 c 7.3151,21.55612 -79.5627,-0.26225 -82.7969,-7.30871 26.7118,29.80529 61.1262,40.23708 87.7778,46.87518 z"
               style="display:inline;fill:#70e5ff;fill-opacity:1;stroke:#27343a;stroke-width:4.3576479;stroke-linecap:butt;stroke-linejoin:miter;stroke-miterlimit:4;stroke-dasharray:none;stroke-opacity:1" />
            <path
               style="opacity:1;fill:#ffd169;fill-opacity:1;stroke:#27343a;stroke-width:3.81898546;stroke-linecap:butt;stroke-linejoin:miter;stroke-miterlimit:4;stroke-dasharray:none;stroke-opacity:1"
               d="m 1489.1816,547.1923 c 28.1354,-21.87753 48.646,-35.65628 74.7184,-48.29791 3.7674,-1.59181 9.3488,-6.05848 4.6415,-12.96842 -13.6398,-18.01698 -51.9472,-66.77726 -94.5682,-40.47965 -43.6856,26.95451 -10.9722,84.89135 2.5719,102.67496 3.6399,4.18297 8.674,2.26161 12.6364,-0.92898 z"
               id="path12938"
               inkscape:connector-curvature="0"
               sodipodi:nodetypes="cccscc" />
            <path
               style="opacity:1;fill:#3560b8;fill-opacity:1;stroke:none;stroke-width:3.81898546;stroke-linecap:butt;stroke-linejoin:miter;stroke-miterlimit:4;stroke-dasharray:none;stroke-opacity:1"
               d="m 1517.3556,494.15171 c 28.1208,-16.92069 29.2324,-15.66204 34.415,-18.3431 3.7674,-1.5918 4.6863,-1.45779 2.0023,-5.37359 -13.7013,-16.57593 -41.311,-39.15106 -70.9354,-27.55373 8.2349,12.07873 24.2918,37.58596 34.5181,51.27042 z"
               id="path12938-9"
               inkscape:connector-curvature="0"
               sodipodi:nodetypes="ccccc" />
            <path
               style="opacity:1;fill:#3560b8;fill-opacity:1;stroke:none;stroke-width:3.75080705;stroke-linecap:butt;stroke-linejoin:miter;stroke-miterlimit:4;stroke-dasharray:none;stroke-opacity:1"
               d="m 1472.244,526.17915 c -3.0396,2.64995 -4.7806,4.42193 -7.0671,0.37759 -9.2547,-19.07673 -21.8652,-54.48008 4.011,-75.75966 7.0719,12.43613 24.6209,38.6509 33.0346,53.03192 -1.056,0.78394 -23.1695,17.15571 -29.9785,22.35013 z"
               id="path12938-9-2"
               inkscape:connector-curvature="0"
               sodipodi:nodetypes="cccccc" />
            <path
               sodipodi:nodetypes="cc"
               inkscape:connector-curvature="0"
               id="path13064"
               d="m 1464.7016,531.18686 c 28.7752,-24.58928 60.4743,-42.7706 93.0944,-58.93386"
               style="fill:none;stroke:#27343a;stroke-width:3.81898546;stroke-linecap:butt;stroke-linejoin:miter;stroke-miterlimit:4;stroke-dasharray:none;stroke-opacity:1" />
            <path
               style="fill:none;stroke:#27343a;stroke-width:3.98748493;stroke-linecap:butt;stroke-linejoin:miter;stroke-miterlimit:4;stroke-dasharray:none;stroke-opacity:1"
               d="m 1502.2225,503.829 c -14.2201,-17.57857 -24.0784,-36.12155 -33.559,-54.74806"
               id="path13076"
               inkscape:connector-curvature="0"
               sodipodi:nodetypes="cc" />
            <path
               style="display:inline;fill:none;stroke:#27343a;stroke-width:3.98748493;stroke-linecap:butt;stroke-linejoin:miter;stroke-miterlimit:4;stroke-dasharray:none;stroke-opacity:1"
               d="m 1517.3556,494.15171 c -12.418,-16.62991 -24.7596,-34.05993 -35.406,-53.30023"
               id="path13076-3"
               inkscape:connector-curvature="0"
               sodipodi:nodetypes="cc" />
          </g>
        </g>
      </g>
    </g>
    <g
       id="g15236"
       transform="matrix(0.61077583,0,0,0.61077583,-703.10498,178.23551)">
      <g
         id="g15220">
        <rect
           style="display:inline;opacity:1;fill:#3560b8;fill-opacity:1;stroke:#27343a;stroke-width:7.57109118;stroke-linecap:butt;stroke-linejoin:miter;stroke-miterlimit:4;stroke-dasharray:none;stroke-opacity:1;paint-order:stroke fill markers"
           id="rect15145-2"
           width="475.50443"
           height="106.90817"
           x="1321.8132"
           y="813.82452"
           ry="12.577433" />
        <text
           xml:space="preserve"
           style="font-size:47.16817093px;line-height:1.25;font-family:din;-inkscape-font-specification:din;letter-spacing:0px;word-spacing:0px;display:inline;fill:#ffffff;fill-opacity:1;stroke:none;stroke-width:1.17920434;stroke-opacity:1"
           x="1445.9749"
           y="884.22528"
           id="text2053-5"><tspan
             sodipodi:role="line"
             id="tspan2051-6"
             x="1445.9749"
             y="884.22528"
             style="font-style:normal;font-variant:normal;font-weight:bold;font-stretch:normal;font-family:din;-inkscape-font-specification:'din Bold';fill:#ffffff;fill-opacity:1;stroke:none;stroke-width:1.17920434;stroke-opacity:1">SIGN UP</tspan></text>
      </g>
      <g
         transform="translate(-27.760847,-19.921814)"
         id="g15215">
        <g
           id="g15225">
          <rect
             ry="12.537156"
             y="833.74036"
             x="1881.469"
             height="106.56583"
             width="475.51645"
             id="rect15145"
             style="display:inline;opacity:1;fill:#3560b8;fill-opacity:1;stroke:#27343a;stroke-width:7.55905485;stroke-linecap:butt;stroke-linejoin:miter;stroke-miterlimit:4;stroke-dasharray:none;stroke-opacity:1;paint-order:stroke fill markers" />
          <text
             id="text2053-5-7"
             y="904.1701"
             x="1945.4904"
             style="font-size:47.16817093px;line-height:1.25;font-family:din;-inkscape-font-specification:din;letter-spacing:0px;word-spacing:0px;display:inline;fill:#ffffff;fill-opacity:1;stroke:none;stroke-width:1.17920434;stroke-opacity:1"
             xml:space="preserve"><tspan
               style="font-style:normal;font-variant:normal;font-weight:bold;font-stretch:normal;font-family:din;-inkscape-font-specification:'din Bold';fill:#ffffff;fill-opacity:1;stroke:none;stroke-width:1.17920434;stroke-opacity:1"
               y="904.1701"
               x="1945.4904"
               id="tspan2051-6-2"
               sodipodi:role="line">SPONSOR US</tspan></text>
        </g>
      </g>
    </g>
  </g>
  <g
     inkscape:label="Image 1"
     id="layer1"
     inkscape:groupmode="layer"
     style="display:inline" />
  <g
     id="g937"
     inkscape:label="Image"
     inkscape:groupmode="layer"
     style="display:inline" />
  <g
     inkscape:groupmode="layer"
     id="layer6"
     inkscape:label="Image 4"
     style="display:inline" />
  <g
     inkscape:label="Image 2"
     id="layer2"
     inkscape:groupmode="layer">
    <rect
       style="display:inline;opacity:1;fill:#ffffff;fill-opacity:1;stroke:none;stroke-width:28.46518898;stroke-linecap:butt;stroke-linejoin:miter;stroke-miterlimit:4;stroke-dasharray:none;stroke-opacity:1;paint-order:stroke fill markers"
       id="rect15029"
       width="671.21533"
       height="2066.8367"
       x="879.15021"
       y="-163.76443" />
    <rect
       style="display:inline;opacity:1;fill:#ffffff;fill-opacity:1;stroke:none;stroke-width:22.77338409;stroke-linecap:butt;stroke-linejoin:miter;stroke-miterlimit:4;stroke-dasharray:none;stroke-opacity:1;paint-order:stroke fill markers"
       id="rect15029-6"
       width="3060.4392"
       height="290.14249"
       x="-340.72052"
       y="-289.01999"
       inkscape:export-filename="C:\Users\Cole\Downloads\rect15029-6.png"
       inkscape:export-xdpi="250"
       inkscape:export-ydpi="250" />
    <rect
       style="display:inline;opacity:1;fill:#ffffff;fill-opacity:1;stroke:none;stroke-width:47.43624496;stroke-linecap:butt;stroke-linejoin:miter;stroke-miterlimit:4;stroke-dasharray:none;stroke-opacity:1;paint-order:stroke fill markers"
       id="rect15029-4"
       width="1864.0363"
       height="2066.8367"
       x="-1862.7698"
       y="-382.72516" />
  </g>
</svg>
