<?xml version="1.0" encoding="UTF-8" standalone="no"?>
<svg
   xmlns:dc="http://purl.org/dc/elements/1.1/"
   xmlns:cc="http://creativecommons.org/ns#"
   xmlns:rdf="http://www.w3.org/1999/02/22-rdf-syntax-ns#"
   xmlns:svg="http://www.w3.org/2000/svg"
   xmlns="http://www.w3.org/2000/svg"
   xmlns:xlink="http://www.w3.org/1999/xlink"
   xmlns:sodipodi="http://sodipodi.sourceforge.net/DTD/sodipodi-0.dtd"
   xmlns:inkscape="http://www.inkscape.org/namespaces/inkscape"
   inkscape:version="0.92.4 (5da689c313, 2019-01-14)"
   inkscape:export-ydpi="250"
   inkscape:export-xdpi="250"
   inkscape:export-filename="C:\Users\Cole\Downloads\vikingHacksLandingConcept.png"
   sodipodi:docname="vikingHacksSketch2.svg"
   viewBox="0 0 2560 1560"
   height="1560"
   width="2560"
   id="svg929"
   version="1.1">
  <metadata
     id="metadata935">
    <rdf:RDF>
      <cc:Work
         rdf:about="">
        <dc:format>image/svg+xml</dc:format>
        <dc:type
           rdf:resource="http://purl.org/dc/dcmitype/StillImage" />
        <dc:title></dc:title>
      </cc:Work>
    </rdf:RDF>
  </metadata>
  <defs
     id="defs933">
    <inkscape:tag
       id="Set 2"
       inkscape:expanded="true">
      <inkscape:tagref
         xlink:href="#path6145"
         id="tagref15137" />
      <inkscape:tagref
         xlink:href="#path12938-9-2"
         id="tagref15139" />
      <inkscape:tagref
         xlink:href="#path12938-9"
         id="tagref15141" />
    </inkscape:tag>
    <linearGradient
       id="linearGradient2018-8"
       inkscape:collect="always">
      <stop
         id="stop2014"
         offset="0"
         style="stop-color:#49b7fb;stop-opacity:1" />
      <stop
         id="stop2016"
         offset="1"
         style="stop-color:#35a7b7;stop-opacity:0;" />
    </linearGradient>
    <inkscape:path-effect
       lpeversion="1"
       is_visible="true"
       id="path-effect1504"
       effect="spiro" />
    <linearGradient
       gradientTransform="matrix(10.781458,0,0,4.2864794,-685.10019,1261.5009)"
       gradientUnits="userSpaceOnUse"
       y2="-60.197254"
       x2="177.24745"
       y1="-287.60907"
       x1="177.24745"
       id="linearGradient2020"
       xlink:href="#linearGradient2018-8"
       inkscape:collect="always" />
    <inkscape:path-effect
       effect="bspline"
       id="path-effect6105"
       is_visible="true"
       weight="33.333333"
       steps="2"
       helper_size="0"
       apply_no_weight="true"
       apply_with_weight="true"
       only_selected="false" />
  </defs>
  <sodipodi:namedview
     inkscape:current-layer="layer9"
     inkscape:window-maximized="1"
     inkscape:window-y="642"
     inkscape:window-x="1072"
     inkscape:cy="874.90588"
     inkscape:cx="1354.9051"
     inkscape:zoom="0.39480623"
     showguides="true"
     showgrid="false"
     id="namedview931"
     inkscape:window-height="1057"
     inkscape:window-width="1920"
     inkscape:pageshadow="2"
     inkscape:pageopacity="0"
     guidetolerance="10"
     gridtolerance="10"
     objecttolerance="10"
     borderopacity="1"
     bordercolor="#666666"
     pagecolor="#ffffff"
     inkscape:guide-bbox="true">
    <sodipodi:guide
       position="1306.783,1040"
       orientation="0,1"
       id="guide13129"
       inkscape:locked="false"
       inkscape:label=""
       inkscape:color="rgb(0,0,255)" />
    <sodipodi:guide
       position="1469.0751,520"
       orientation="0,1"
       id="guide13131"
       inkscape:locked="false"
       inkscape:label=""
       inkscape:color="rgb(0,0,255)" />
    <inkscape:grid
       type="xygrid"
       id="grid13133" />
    <sodipodi:guide
       position="853,1945.2581"
       orientation="1,0"
       id="guide13135"
       inkscape:locked="false"
       inkscape:label=""
       inkscape:color="rgb(0,0,255)" />
    <sodipodi:guide
       position="1706,1697.035"
       orientation="1,0"
       id="guide13137"
       inkscape:locked="false"
       inkscape:label=""
       inkscape:color="rgb(0,0,255)" />
  </sodipodi:namedview>
  <g
     inkscape:groupmode="layer"
     id="layer9"
     inkscape:label="Image 5">
    <rect
       style="opacity:1;fill:#ffffff;fill-opacity:1;stroke:#27343a;stroke-width:4.4031496;stroke-linecap:butt;stroke-linejoin:miter;stroke-miterlimit:4;stroke-dasharray:none;stroke-opacity:1;paint-order:stroke fill markers"
       id="rect15271"
       width="2872.2952"
       height="1879.403"
       x="-25.32888"
       y="-152.23236" />
  </g>
  <g
     inkscape:label="Image 3"
     id="layer3"
     inkscape:groupmode="layer"
     style="display:inline" />
  <g
     inkscape:label="Image 1"
     id="layer1"
     inkscape:groupmode="layer"
     style="display:inline">
    <path
       sodipodi:nodetypes="cscccc"
       d="m -1.3443031,950.02502 c 0,0 43.0020491,0.77892 64.4818961,0 842.981647,-30.5688 2503.934107,0 2503.934107,0 l -2,608.41478 H -3.3443031 Z"
       style="fill:#2fa4ff;fill-opacity:1;stroke-width:4.6434598;stroke-linejoin:round;stroke-dasharray:27.8607, 4.64346"
       id="rect2004"
       inkscape:connector-curvature="0" />
    <rect
       y="0"
       x="-0.029717684"
       height="1032.1371"
       width="2560"
       id="rect2012"
       style="fill:url(#linearGradient2020);fill-opacity:1;stroke-width:6.79812002;stroke-linejoin:round;stroke-miterlimit:4;stroke-dasharray:40.7887, 6.79812;stroke-dashoffset:0" />
    <path
       id="path2028"
       d="m 906.97028,396.34863 c 70.18798,-71.24435 56.00002,-44.22729 95.25002,-42.03796 39.25,2.18933 74.155,48.43933 74.155,48.43933 0,0 26.5073,36.02122 39.0479,50 4.306,4.79979 8.1697,7.69026 17.6647,7.88489 13.3381,0.2734 20.746,-15.53064 45.3437,-14.58448 40.9815,1.57635 190.3989,159.2741 190.3989,159.2741 L 854.42925,884.32182 662.6186,570.44985 C 759.07204,527.33007 834.38309,470.0283 906.97028,396.34863 Z"
       style="fill:#ffffff;fill-opacity:1;stroke:#27343a;stroke-width:4.4031496;stroke-linecap:butt;stroke-linejoin:miter;stroke-miterlimit:4;stroke-dasharray:none;stroke-opacity:1"
       inkscape:connector-curvature="0"
       sodipodi:nodetypes="sscssscccs" />
    <ellipse
       style="display:inline;opacity:1;fill:#ffdc69;fill-opacity:1;stroke:none;stroke-width:4.56937265;stroke-linecap:butt;stroke-linejoin:miter;stroke-miterlimit:4;stroke-dasharray:none;stroke-opacity:1;paint-order:stroke fill markers"
       id="path13139"
       cx="2401.6865"
       cy="218.20251"
       rx="283.05023"
       ry="261.52069" />
    <path
       sodipodi:nodetypes="cssssssssscc"
       id="path2009"
       d="m 2580.9886,997.67057 c -597.1465,-5.2642 -471.7147,42.32943 -707.7017,28.25383 -189.7414,-11.3172 -380.0575,45.7143 -570.1356,46.1424 -128.3473,0.2891 -256.6979,-44.2087 -385.00387,-40.9391 -73.0973,1.8628 -245.27387,-76.4354 -260.24012,-148.00845 -28.97819,-138.58214 214.54189,-238.68129 442.81219,-333.7583 195.9128,-81.59978 252.2725,-85.32785 453.6647,-152.27235 45.7643,-15.21243 84.0283,-34.66534 152.7014,-47.9032 42.9526,-8.27983 143.131,55.04568 191.8189,48.11291 177.4317,-25.26486 415.3308,-117.71665 524.9096,-126.44052 25.461,-2.02701 130.0187,59.29842 146.6709,78.66526 -0.6223,191.59419 10.5036,648.14752 10.5036,648.14752"
       style="display:inline;fill:#4cb578;fill-opacity:1;stroke:#27343a;stroke-width:4;stroke-linecap:butt;stroke-linejoin:miter;stroke-miterlimit:4;stroke-dasharray:none;stroke-opacity:1"
       inkscape:connector-curvature="0" />
  </g>
  <g
     id="g937"
     inkscape:label="Image"
     inkscape:groupmode="layer"
     style="display:inline">
    <path
       id="path2376"
       style="fill:#fae9b4"
       d="m 673.16406,490.88477 c 0.10725,0.37338 0.31205,0.92283 0.61524,1.63867 0.46175,0.32414 0.92228,0.64964 1.38281,0.97461 -0.0277,-0.0532 -0.048,-0.10084 -0.0762,-0.1543 -0.26109,-0.4949 -0.48489,-0.89516 -0.69727,-1.26758 -0.39034,-0.39104 -0.78838,-0.78333 -1.22461,-1.1914 z"
       inkscape:connector-curvature="0" />
    <path
       sodipodi:nodetypes="ssss"
       id="path1990"
       d="m 851.80244,159.25003 c 175.08276,-0.13921 461.28276,-0.13921 636.00006,1e-5 174.7173,0.13921 31.4678,0.25311 -318.3322,0.25311 -349.80002,0 -492.75055,-0.1139 -317.66786,-0.25312 z"
       style="fill:#9ce3fb"
       inkscape:connector-curvature="0" />
    <path
       id="path1986"
       style="fill:#9ce3fb"
       d="m 238.9375,159.14258 c -42.59375,-1e-5 -85.23341,0.0364 -117.63672,0.10742 -64.806615,0.14205 -12.08008,0.2578 117.16992,0.25781 50.71875,0 85.47312,-0.0224 110.22461,-0.0527 -0.0168,-0.0723 -0.034,-0.14449 -0.0508,-0.2168 -31.26597,-0.0615 -70.0891,-0.0957 -109.70703,-0.0957 z m 114.81055,0.10351 c 0.013,0.0668 0.026,0.13842 0.0391,0.20508 33.92514,-0.0474 40.01335,-0.11851 2.51367,-0.20117 -0.75058,-0.002 -1.79107,-0.002 -2.55273,-0.004 z"
       inkscape:connector-curvature="0" />
    <path
       sodipodi:nodetypes="ssss"
       id="path1750"
       d="m 1265.8427,515.25 c -1.2438,-1.58606 -1.2085,-1.62143 0.3776,-0.37756 0.9625,0.75485 1.75,1.54235 1.75,1.75 0,0.82304 -0.8212,0.29331 -2.1276,-1.37244 z"
       style="fill:#9ce3fb"
       inkscape:connector-curvature="0" />
    <path
       id="path1744"
       style="fill:#9ce3fb"
       d="m 765.4707,514.89062 -2,0.98047 c -1.1,0.54004 -2.9,1.71569 -4,2.61133 l -2,1.62696 2,-0.98047 c 1.1,-0.54004 2.9,-1.71569 4,-2.61133 z"
       inkscape:connector-curvature="0" />
    <path
       id="path1738"
       style="fill:#9ce3fb"
       d="m 757.4707,519.89062 -2,0.98047 c -1.1,0.54004 -2.9,1.71569 -4,2.61133 l -2,1.62696 2,-0.98047 c 1.1,-0.54004 2.9,-1.71569 4,-2.61133 z"
       inkscape:connector-curvature="0" />
    <path
       id="path1734"
       style="fill:#9ce3fb"
       d="m 748.8125,525.32031 c -0.30469,-0.0162 -1.0168,0.23817 -1.8418,0.67969 -1.1,0.5887 -2,1.29531 -2,1.57031 0,0.275 0.9,0.0184 2,-0.57031 1.1,-0.5887 2,-1.29531 2,-1.57031 0,-0.0688 -0.0566,-0.10397 -0.1582,-0.10938 z"
       inkscape:connector-curvature="0" />
    <path
       id="path1728"
       style="fill:#9ce3fb"
       d="m 747.32812,533 c -0.53654,0 -1.84839,0.69934 -2.91601,1.55469 -1.83031,1.46637 -1.79868,1.48788 0.55859,0.36523 C 748.03173,533.46211 748.59866,533 747.32812,533 Z"
       inkscape:connector-curvature="0" />
    <path
       id="path1726"
       style="fill:#9ce3fb"
       d="m 738.8125,538.32031 c -0.30469,-0.0162 -1.0168,0.23817 -1.8418,0.67969 -1.1,0.5887 -2,1.29531 -2,1.57031 0,0.275 0.9,0.0184 2,-0.57031 1.1,-0.5887 2,-1.29531 2,-1.57031 0,-0.0688 -0.0566,-0.10397 -0.1582,-0.10938 z"
       inkscape:connector-curvature="0" />
    <path
       id="path1724"
       style="fill:#9ce3fb"
       d="m 728.82031,544.29102 c -0.0738,-0.0482 -0.67097,0.22773 -1.84961,0.78906 -1.375,0.65484 -2.6888,1.35419 -2.91797,1.55469 -1.37232,1.20066 1.88357,0.0868 3.47657,-1.18946 0.91515,-0.73318 1.36486,-1.10612 1.29101,-1.15429 z"
       inkscape:connector-curvature="0" />
    <path
       id="path1722"
       style="fill:#9ce3fb"
       d="m 718.9707,548.70898 c -0.20318,0.0531 -0.38712,0.1145 -0.57226,0.17383 0.3322,0.28634 0.66376,0.57318 0.99609,0.85938 0.0501,-0.0179 0.10216,-0.0334 0.15039,-0.0527 -0.19276,-0.33687 -0.38299,-0.66094 -0.57226,-0.98047 -7.1e-4,1.9e-4 -10e-4,-1.8e-4 -0.002,0 z"
       inkscape:connector-curvature="0" />
    <path
       id="path1718"
       style="fill:#9ce3fb"
       d="m 739.84961,441.12695 c -0.54375,-0.007 -1.12289,0.0529 -1.60938,0.17969 -0.97297,0.25354 -0.41953,0.47767 1.23047,0.49805 1.65,0.0204 2.44656,-0.18701 1.76953,-0.46094 -0.33851,-0.13696 -0.84687,-0.21008 -1.39062,-0.2168 z"
       inkscape:connector-curvature="0" />
    <path
       id="path1686"
       style="fill:#9ce3fb"
       d="m 6.9121094,608 c -0.5824593,0 -0.781325,0.45 -0.4414063,1 0.3399187,0.55 0.8160531,1 1.0585938,1 0.2425406,0 0.4414062,-0.45 0.4414062,-1 0,-0.55 -0.4761343,-1 -1.0585937,-1 z"
       inkscape:connector-curvature="0" />
    <path
       id="path1604"
       style="fill:#9ce3fb"
       d="m 293.9707,399.14062 c -0.825,0 -2.4,0.38669 -3.5,0.85938 -1.26064,0.54172 -1.44548,0.85938 -0.5,0.85938 0.825,0 2.4,-0.38669 3.5,-0.85938 1.26064,-0.54172 1.44548,-0.85938 0.5,-0.85938 z"
       inkscape:connector-curvature="0" />
    <path
       id="path1602"
       style="fill:#9ce3fb"
       d="m 12.052734,613.49219 c -0.179297,0.0196 -0.375781,0.0673 -0.582031,0.14648 -0.825,0.31659 -1.4999999,0.75259 -1.4999999,0.96875 0,0.21615 0.6749999,0.39258 1.4999999,0.39258 0.825,0 1.5,-0.43601 1.5,-0.96875 0,-0.39955 -0.380078,-0.59791 -0.917969,-0.53906 z"
       inkscape:connector-curvature="0" />
    <g
       id="g15080"
       transform="translate(50)">
      <path
         id="path15076"
         d="m 2092.9277,102.21484 -2.4257,4.14258 c -6.847,11.68868 -17.4468,40.43169 -21.9942,59.64258 -8.845,37.36676 -6.7886,85.07646 4.1023,123.26257 2.1968,7.70256 4.6424,16.57961 11.2136,32.25281 9.463,17.79038 11.3969,11.20059 8.1709,4.94241 C 2082.617,305.33485 2080.2883,301.2949 2075.6211,285.5 2044.8397,181.32752 2088.749,69.298858 2183.8848,6.0917969 c 6.666,-4.42877 7.9606,-5.65845401 6.2265,-5.91406252 -2.8562,-0.42102822 -19.8575,11.50712362 -35.2773,24.75195362 -21.0243,18.058786 -42.1412,43.130854 -56.2793,66.820312 -2.0516,3.4375 -5.627,10.46484 -5.627,10.46484 z"
         style="fill:#27343a;stroke:none;stroke-width:3.79999995;stroke-miterlimit:4;stroke-dasharray:none;stroke-opacity:1"
         inkscape:connector-curvature="0"
         sodipodi:nodetypes="cccsccsccscc" />
      <path
         id="path15074"
         d="m 1453.521,25.871232 c -0.3934,-0.0074 -0.8686,0.147249 -1.4056,0.464323 -2.7661,1.633257 -0.7496,2.476319 35.2966,14.756705 48.6323,16.568294 79.979,25.695846 127.8969,37.240905 5.5323,1.332933 21.8322,5.456408 36.222,9.165406 14.3898,3.708988 39.2945,10.10006 55.3438,14.200409 16.0493,4.10039 41.186,10.79383 55.8595,14.8742 14.6734,4.08035 34.0519,9.46681 43.0642,11.97056 9.0123,2.50375 28.7336,8.5897 43.825,13.52368 55.6805,18.20413 85.9272,26.47249 121.2535,33.14954 33.9498,6.4169 55.6859,10.9961 57.5698,12.12681 2.0245,1.21509 5.0252,1.11555 4.9955,-0.16456 -0.042,-1.80845 -22.1414,-6.95854 -58.3305,-13.5959 -28.0516,-5.14486 -39.0061,-7.89514 -80.9927,-20.33061 -12.1868,-3.60948 -29.883,-9.18543 -39.3248,-12.39128 -9.4417,-3.20585 -29.387,-9.24655 -44.3228,-13.42228 -14.9357,-4.17571 -34.4054,-9.64873 -43.2661,-12.16321 -14.1337,-4.01089 -47.0093,-12.73908 -116.246,-30.862577 -10.7934,-2.825284 -27.5471,-7.110829 -37.2306,-9.523 -50.8163,-12.658444 -79.6048,-21.240144 -121.0814,-36.093772 -13.1549,-4.711026 -26.984,-9.202644 -30.7296,-9.980347 -3.7456,-0.777701 -7.1081,-1.87371 -7.4745,-2.436899 -0.2155,-0.331251 -0.5288,-0.50066 -0.9222,-0.508073 z"
         style="fill:#27343a;stroke:none;stroke-width:3.79999995;stroke-miterlimit:4;stroke-dasharray:none;stroke-opacity:1"
         inkscape:connector-curvature="0" />
      <path
         id="path15074-0"
         d="m 1692.9647,304.89422 c 22.7506,-1.39817 42.3988,-3.89121 57.5844,-5.05677 15.1855,-1.16559 35.2395,-2.70703 44.5655,-3.42516 9.326,-0.7181 29.9408,-1.71877 45.8102,-2.22434 58.5511,-1.86524 89.8048,-4.4019 125.2914,-10.16598 34.104,-5.5395 56.0993,-8.64346 58.2559,-8.22261 2.3173,0.45225 5.1043,-0.66414 4.6402,-1.85748 -0.6559,-1.68586 -23.1873,1.00528 -59.4717,7.1008 -28.1254,4.72488 -39.3612,5.87322 -83.0723,8.49398 -12.6874,0.76069 -31.2244,1.55057 -41.1934,1.75501 -9.9691,0.20443 -30.779,1.324 -46.2437,2.48936 -15.4646,1.16532 -35.6339,2.6565 -44.8209,3.31282 -32.8938,0.8074 -157.9237,15.17591 -61.3456,7.80037 z"
         style="display:inline;fill:#27343a;stroke:none;stroke-width:3.79999995;stroke-miterlimit:4;stroke-dasharray:none;stroke-opacity:1"
         inkscape:connector-curvature="0"
         sodipodi:nodetypes="ccccsccsscccc" />
      <path
         id="path15074-0-2"
         d="m 1774.9143,-86.482651 c 19.3664,12.020283 36.8355,21.352818 49.8966,29.186643 13.061,7.83374 30.3107,18.177241 38.3334,22.986379 8.0225,4.80915 25.4169,15.918166 38.6539,24.6859092 48.839,32.3491898 75.7998,48.3596808 108.0805,64.1862358 31.0231,15.209951 50.7601,25.401902 52.2758,26.992741 1.6286,1.709406 4.5477,2.410994 4.8595,1.169124 0.4402,-1.754577 -19.4953,-12.593384 -52.6186,-28.611111 -25.6749,-12.415916 -35.5042,-17.978905 -72.6752,-41.127167 -10.7892,-6.7189281 -26.3667,-16.7979091 -34.6166,-22.398013 -8.2501,-5.600185 -25.8722,-16.725063 -39.1609,-24.720506 -13.2885,-7.995419 -30.6032,-18.446618 -38.4766,-23.225752 -27.2985,-18.369827 -137.5968,-78.976812 -54.5518,-29.124483 z"
         style="display:inline;fill:#27343a;stroke:none;stroke-width:3.79999995;stroke-miterlimit:4;stroke-dasharray:none;stroke-opacity:1"
         inkscape:connector-curvature="0"
         sodipodi:nodetypes="ccccsccsscccc" />
    </g>
    <path
       style="fill:#27343a;stroke:none;stroke-width:3.79999995;stroke-miterlimit:4;stroke-dasharray:none;stroke-opacity:1"
       d="M 908.62695 455.00195 C 897.71997 454.73019 883.77198 459.70465 875.5293 466.98047 C 870.8493 471.11153 870.20927 471.17462 864.57617 468.07617 C 854.7167 462.65264 852.94255 464.20991 862.29102 470.08203 C 869.40052 474.54781 871.23922 474.39515 878.35742 468.75 C 895.66492 455.02412 915.6247 454.85781 939.1582 468.24609 C 949.1719 473.94291 961.99762 479.59277 965.57812 479.88281 C 966.05162 479.92121 966.5595 479.92599 967.0918 479.90039 C 967.5909 479.87639 968.1132 479.82532 968.6543 479.75 C 975.48319 478.7988 985.26172 473.9477 988.65234 469.89648 C 988.85219 469.70981 988.96329 469.61806 989.17969 469.41406 C 1002.3993 456.95251 1006.9048 456.71434 1027.5332 467.39062 C 1045.2016 476.53497 1054.5422 479.9895 1063.998 480.87891 C 1075.158 481.92864 1090.4422 476.78821 1099.2344 469.02734 C 1103.9144 464.89628 1104.5544 464.83319 1110.1875 467.93164 C 1120.047 473.35517 1121.8212 471.79595 1112.4727 465.92383 C 1105.3632 461.45805 1103.5264 461.61266 1096.4082 467.25781 C 1079.1007 480.98369 1059.139 481.14805 1035.6055 467.75977 C 1025.5918 462.06295 1012.766 456.41504 1009.1855 456.125 C 1008.712 456.0866 1008.2042 456.07987 1007.6719 456.10547 C 1007.1728 456.12947 1006.6505 456.18249 1006.1094 456.25781 C 999.28042 457.20901 989.5019 462.06012 986.11133 466.11133 C 985.91148 466.298 985.80038 466.38976 985.58398 466.59375 C 972.36438 479.0553 967.85887 479.29347 947.23047 468.61719 C 929.56207 459.47284 920.22143 456.01832 910.76562 455.12891 C 910.06813 455.0633 909.35409 455.02007 908.62695 455.00195 z "
       id="path15060" />
    <path
       style="fill:#27343a;stroke:none;stroke-width:3.79999995;stroke-miterlimit:4;stroke-dasharray:none;stroke-opacity:1"
       d="m 676.53516,494.43164 c 0.008,0.0172 0.0158,0.0317 0.0234,0.0488 0.0144,0.0103 0.0286,0.0211 0.043,0.0312 -0.0197,-0.0257 -0.0463,-0.0542 -0.0664,-0.0801 z"
       id="path15058" />
    <path
       style="fill:#27343a;stroke:none;stroke-width:3.79999995;stroke-miterlimit:4;stroke-dasharray:none;stroke-opacity:1"
       d="m 680.58984,503.46484 c 0.10392,0.22881 0.21288,0.46779 0.3086,0.67774 1.26919,1.08383 2.51796,2.14657 3.65625,3.09375 -0.14345,-0.26743 -0.29051,-0.53241 -0.43555,-0.79883 -1.1499,-0.94983 -2.34603,-1.97292 -3.5293,-2.97266 z"
       id="path15056" />
    <path
       style="fill:#27343a;stroke:none;stroke-width:3.79999995;stroke-miterlimit:4;stroke-dasharray:none;stroke-opacity:1"
       d="m 695.88086,528.20117 0.13867,0.39453 c 0.009,0.0108 0.0336,0.0338 0.043,0.0449 -0.0638,-0.1532 -0.11697,-0.28453 -0.18164,-0.43945 z"
       id="path15054" />
    <path
       style="fill:#27343a;stroke:none;stroke-width:3.79999995;stroke-miterlimit:4;stroke-dasharray:none;stroke-opacity:1"
       d="m 716.1582,544.70508 c -0.51466,0.30579 -1.04736,0.6089 -1.53515,0.91601 1.19213,1.03477 2.38823,2.06481 3.58398,3.09571 0.19544,-0.0975 0.39755,-0.19946 0.5957,-0.29883 -0.40307,-0.6721 -0.79882,-1.30695 -1.17773,-1.86328 -0.38619,-0.56702 -0.90008,-1.19657 -1.4668,-1.84961 z"
       id="path15052" />
    <path
       style="fill:#27343a;stroke:none;stroke-width:3.79999995;stroke-miterlimit:4;stroke-dasharray:none;stroke-opacity:1"
       d="m 2311.6914,1027.8906 c -32.8035,0.095 -66.6826,1.8131 -92.2207,5.127 -21.7049,2.8166 -76.9583,14.1831 -95.5,19.6465 -6.325,1.8637 -17.0445,4.7228 -23.8203,6.3535 -14.9591,3.5999 -27.2884,7.1303 -54.1797,15.5136 -11.275,3.5154 -25.45,7.7324 -31.5,9.3711 -13.5382,3.667 -36.6176,11.9585 -54.2793,19.502 -7.3035,3.1194 -19.0035,7.2602 -26,9.2012 -14.749,4.0918 -31.33,9.6267 -49.7207,16.5976 -7.15,2.7101 -19.3,6.6864 -27,8.836 -16.4455,4.5909 -27.2671,8.0891 -56.6738,18.3203 -13.6774,4.7587 -31.5717,9.9721 -48.5,14.1308 -14.7541,3.6246 -41.9012,10.3669 -60.3262,14.9825 -36.5793,9.1634 -55.756,15.2184 -78,18.4921 -7.975,1.1738 -19.45,3.2592 -25.5,4.6348 -37.8068,8.5965 -40.4148,6.9061 -75,6.8711 -32.5717,-0.033 -47.5182,-1.798 -66.582,-7.8633 -9.6736,-3.0777 -15.418,-3.6768 -15.418,-1.6074 0,3.795 18.0031,8.915 43.5,12.3711 6.7003,0.9082 20.2707,1.4575 37.5,1.5195 30.7432,0.1097 41.215,0.9598 71.5215,-5.8535 9.6375,-2.1666 25.1625,-5.117 34.5,-6.5566 21.6438,-3.337 41.9934,-9.7557 76.4785,-18.6075 15.125,-3.8823 40.775,-10.3571 57,-14.3886 21.7634,-5.4077 36.65,-9.8394 56.7617,-16.8985 14.9936,-5.2628 35.0223,-11.784 44.5098,-14.4921 9.4876,-2.7084 22.1964,-6.7935 28.2402,-9.0782 20.9415,-7.916 39.0214,-14.2777 45.9883,-16.1797 12.8627,-3.5117 28.906,-9.0779 38.5,-13.3574 11.9893,-5.3479 34.914,-13.4607 50.5,-17.873 6.6,-1.8684 24.825,-7.278 40.5,-12.0196 15.675,-4.7416 34.125,-9.9914 41,-11.6679 6.875,-1.6765 17.7156,-4.5917 24.0898,-6.4785 13.578,-4.0192 38.9015,-9.7923 64.9102,-14.7969 44.6288,-8.5876 65.8008,-10.3666 131,-11.002 42.3412,-0.4126 62.099,0.978 104.2676,7.3379 3.7227,0.5614 10.0227,0.9645 14,0.8945 l 7.2324,-0.1289 -7,-0.8574 c -12.3883,-1.518 -22.6413,-2.9338 -39.0137,-5.3847 -21.2349,-3.1789 -52.9621,-4.7061 -85.7656,-4.6114 z"
       id="path15050" />
    <path
       style="fill:#27343a;stroke:none;stroke-width:3.79999995;stroke-miterlimit:4;stroke-dasharray:none;stroke-opacity:1"
       d="m 972.78765,1224.5908 c -5.35107,10e-5 -10.93735,0.014 -16.78907,0.041 -18.7035,-1.6862 -87.21425,4.1902 -48.75781,4.8574 35.83941,-1.3438 107.37173,-1.3876 129.18753,0.4258 46.2169,3.8417 85.2102,10.4971 146.5703,25.0176 5.775,1.3667 26.475,5.8369 46,9.9336 56.5386,11.8629 95.7485,21.7721 134.5,33.9922 17.113,5.3965 49.6833,15.0586 83,24.6211 9.9,2.8414 26.325,7.6196 36.5,10.6172 10.175,2.9975 34.925,9.4771 55,14.4004 72.9207,17.8835 106.0098,26.8941 134,36.4882 17.3556,5.9489 41.6165,13.2331 68.5,20.5684 9.9,2.7012 20.025,5.5574 22.5,6.3457 16.0863,5.1234 70.9796,15.4158 123,23.0625 22.455,3.3008 41.7791,6.4204 46,7.4277 3.8602,0.9213 8.577,1.288 7.9023,0.6133 -0.6379,-0.6379 -31.384,-6.1921 -46.9023,-8.4726 -59.3822,-8.7266 -111.7742,-19.653 -156,-32.5332 -14.575,-4.2448 -31,-9.0071 -36.5,-10.5821 -5.5,-1.575 -17.2,-5.3939 -26,-8.4863 -28.7282,-10.0952 -64.1869,-19.8895 -136,-37.5684 -18.15,-4.4681 -45.15,-11.7194 -60,-16.1132 -14.85,-4.3938 -34.875,-10.2265 -44.5,-12.9629 -19.516,-5.5482 -40.4405,-11.8485 -71,-21.375 -31.1749,-9.7183 -42.4296,-12.8594 -71.3633,-19.9161 -24.6661,-6.0158 -33.9084,-8.0811 -83.1367,-18.5878 -9.9,-2.1129 -33.075,-7.2117 -51.5,-11.3301 -76.5965,-17.1212 -103.9449,-20.4851 -184.21095,-20.4844 z"
       id="path15048"
       inkscape:connector-curvature="0" />
    <path
       style="fill:#27343a;stroke:none;stroke-width:3.79999995;stroke-miterlimit:4;stroke-dasharray:none;stroke-opacity:1"
       d="m 1911.8867,1439.123 c -0.3474,-0.014 -0.7425,0.049 -1.1035,0.1934 -0.7977,0.3192 -0.5615,0.5575 0.6035,0.6055 1.0541,0.043 1.6448,-0.1931 1.3125,-0.5254 -0.1661,-0.1662 -0.4651,-0.2591 -0.8125,-0.2735 z"
       id="path1508" />
    <path
       inkscape:connector-curvature="0"
       sodipodi:nodetypes="cccccccssscssssssccccsccc"
       id="path1520"
       d="m 694.4596,1265.0542 c 4.125,-0.5181 10.425,-1.35 14,-1.8486 87.56059,-18.3424 187.58151,-33.0239 248.9099,-32.6983 64.4059,0.3834 79.9731,0.9319 100.0901,3.527 198.1667,23.454 372.5252,88.8597 525.3322,128.4711 11.825,3.052 43.3511,20.3851 43.5939,20.6235 -76.1434,-13.518 -186.3798,-15.0252 -265.837,-21.4181 -0.874,-0.2702 -10.3641,-1.1841 -21.0891,-2.0309 -25.3492,-2.0014 -49.2278,-4.1546 -60.5,-5.4553 -12.2822,-1.4173 -117.1891,-9.9185 -137,-11.1019 -8.8,-0.5257 -23.65,-1.417 -33,-1.9806 -41.9078,-2.5265 -66.2928,-3.2547 -128.701,-3.8434 -51.338,-0.4843 -66.9886,-0.9171 -67.95,-1.8792 -0.9989,-0.9997 -0.8742,-1.25 0.6222,-1.25 1.0292,0 2.5817,-0.6261 3.45,-1.3914 0.8684,-0.7653 8.3288,-5.3339 16.5788,-10.1524 8.25,-4.8186 18.5604,-11.1991 22.912,-14.1789 4.3517,-2.9799 11.3819,-7.1625 15.6228,-9.2948 23.25365,-10.4107 -13.79735,-13.6606 -22.0348,-15.0786 -27.3186,-4.631 -99.6073,-0.4205 -157.5,9.1739 -216.19609,28.6904 -434.07294,153.8876 -604.097,231.7234 -8.29832,2.756 -17.74627,6.3518 -20.99544,7.9906 -23.84128,12.025 -51.59302,22.2235 -60.36074,22.1819 -9.940955,0.7177 -3.22731,-1.2817 1.45316,-3.8156 157.25226,-101.8614 412.29995,-245.1167 586.50002,-286.2734 z"
       style="fill:#70e5ff;stroke:none;stroke-opacity:1;fill-opacity:1" />
  </g>
  <g
     inkscape:groupmode="layer"
     id="layer6"
     inkscape:label="Image 4"
     style="display:inline">
    <g
       transform="translate(-25.588728,-43.618893)"
       style="opacity:1;stroke:#27343a;stroke-opacity:1;stroke-width:4;stroke-miterlimit:4;stroke-dasharray:none"
       id="g6190">
      <g
         id="g6131"
         style="stroke:#27343a;stroke-opacity:1;stroke-width:4;stroke-miterlimit:4;stroke-dasharray:none">
        <path
           style="fill:#552200;stroke:#27343a;stroke-width:4;stroke-linecap:butt;stroke-linejoin:miter;stroke-opacity:1;stroke-miterlimit:4;stroke-dasharray:none"
           d="m 842.05438,987.67372 c 13.88476,39.54248 36.09418,81.85328 27.06949,122.77948 -9.16026,41.541 -46.00675,72.7407 -77.34139,101.5105 -38.52388,35.3706 -84.40055,63.4522 -132.44713,84.1088 -54.64263,23.4925 -113.65369,40.4013 -173.05136,43.5045 -47.78737,2.4967 -102.63548,6.7395 -142.11481,-20.3021 -17.61286,-12.064 -31.35353,-55.8457 -31.35353,-55.8457 0,0 8.09439,14.7273 13.95172,17.175 17.79527,7.4365 37.76105,9.2193 57.03928,9.6677 22.66442,0.5272 45.39883,-2.557 67.67371,-6.7674 30.71952,-5.8066 61.57954,-12.291 90.87614,-23.2024 34.17287,-12.7276 67.53206,-28.2973 98.61027,-47.3716 30.15928,-18.5103 57.34754,-41.6229 84.10876,-64.7734 13.96913,-12.0844 27.7693,-25.0352 37.70393,-40.6042 11.95075,-18.7285 21.53252,-39.3918 27.06948,-60.9064 5.89002,-22.8864 6.76732,-46.9425 6.76738,-70.57399 5e-5,-17.22795 -4.51059,-34.16012 9.18429,-61.87312 9.23725,-18.69252 27.20565,47.70614 36.25377,73.47433 z"
           id="path6124"
           inkscape:connector-curvature="0"
           sodipodi:nodetypes="sssssscsssssssssss" />
        <path
           style="fill:#a15c57;stroke:#27343a;stroke-width:4;stroke-linecap:butt;stroke-linejoin:miter;stroke-opacity:1;fill-opacity:1;stroke-miterlimit:4;stroke-dasharray:none"
           d="m 866.16329,957.50231 c 4.81404,4.18974 12.82854,7.57274 20.94726,9.10365 8.11873,1.5309 16.33385,1.20874 25.59963,-0.92661 9.26577,-2.13536 19.57593,-6.08221 26.98826,-13.19311 7.41234,-7.11091 11.92301,-17.38073 14.50104,-28.09615 2.57802,-10.71541 3.22252,-21.87341 -3.06163,-37.01916 -6.28415,-15.14574 -19.49703,-34.28025 -35.12574,-46.10244 -15.62872,-11.82219 -33.67658,-16.33416 -48.98278,-18.1065 -15.3062,-1.77235 -27.875,-0.80552 -42.53722,6.44481 -14.66221,7.25032 -31.41995,20.78542 -36.89871,42.21531 -5.47875,21.42989 0.32201,50.75593 7.08928,76.69723 6.76727,25.9413 14.50176,48.5002 18.36875,71.05736 3.867,22.5572 3.867,45.1163 -0.64435,68.318 -4.51136,23.2018 -13.5349,47.0497 -31.58071,69.6073 -18.04581,22.5575 -45.11646,43.8273 -72.18532,62.3567 -27.06885,18.5293 -54.13943,34.3205 -82.81964,47.855 -28.68021,13.5346 -58.97347,24.814 -88.29818,32.7091 -29.32472,7.8952 -57.68577,12.4072 -76.91922,14.5824 -19.23345,2.1751 -29.34423,2.0139 -42.23449,1.1681 -12.89027,-0.8459 -28.55997,-2.3767 -44.2903,-6.9688 -15.73034,-4.5921 -31.52019,-12.2453 -41.82952,-20.7642 -10.30934,-8.5189 -15.13467,-17.8993 -17.30616,-25.1519 -2.17148,-7.2526 -1.68741,-12.3697 1.05306,-21.0528 2.74047,-8.6831 7.73545,-20.9268 10.93123,-34.3013 3.19578,-13.3745 4.5913,-27.8741 3.49252,-38.182 -1.09878,-10.308 -4.69138,-16.4215 -10.18449,-21.0334 -5.49311,-4.6119 -12.88712,-7.7222 -21.2992,-7.5659 -8.41207,0.1564 -17.8437,3.5803 -28.85532,8.2654 -11.01161,4.6851 -23.60471,10.632 -34.98358,20.8604 -11.37887,10.2284 -21.54304,24.7389 -25.70406,37.7555 -4.16101,13.0166 -2.31834,24.5367 3.09583,29.8159 5.41416,5.2793 14.39306,4.3129 23.72347,1.3737 9.33041,-2.9391 19.00458,-7.8482 25.67167,-15.428 6.6671,-7.5798 10.32415,-17.8277 6.71657,-22.2035 -3.60757,-4.3758 -14.48162,-2.8802 -25.35454,-1.3848 7.21585,-4.7822 14.71127,-9.7497 21.72387,-11.0815 7.0126,-1.3318 14.10363,0.6022 19.74251,4.4688 5.63888,3.8666 9.82858,9.6677 10.7955,17.7238 0.96692,8.0561 -1.28879,18.3679 -6.28406,32.3871 -4.99527,14.0191 -12.72851,31.7411 -17.2403,44.1482 -4.51179,12.4072 -5.80073,19.4964 -5.31736,28.0371 0.48338,8.5408 2.7388,18.5291 6.76729,26.4249 4.0285,7.8959 9.82869,13.6961 19.01327,18.8523 9.18458,5.1562 21.75257,9.6677 42.05419,13.5347 20.30162,3.8669 48.33914,7.0896 70.89684,8.7009 22.55771,1.6112 39.6378,1.6112 59.45594,-0.1612 19.81813,-1.7724 42.37736,-5.3174 71.54065,-12.0846 29.16328,-6.7672 64.93547,-16.7576 107.35157,-31.6214 42.4161,-14.8638 91.48119,-34.6027 131.62212,-55.3279 40.14094,-20.7252 71.35949,-42.4372 91.88309,-58.2279 20.5236,-15.7906 30.35241,-25.6597 37.74389,-36.5158 7.39147,-10.856 12.34617,-22.6989 14.46074,-36.5147 2.11457,-13.8159 1.38943,-29.608 -2.07489,-47.2915 -3.46432,-17.6836 -9.66776,-37.2607 -19.25482,-54.8033 -9.58705,-17.5425 -22.55787,-33.0511 -33.91742,-50.3322 -11.35956,-17.28105 -21.10781,-36.33446 -25.33727,-51.98423 -4.22946,-15.64976 -2.94041,-27.89575 2.21582,-36.43509 5.15622,-8.53933 14.18019,-13.3736 23.32355,-16.49513 9.14337,-3.12152 18.40945,-4.53158 26.58609,-1.12771 8.17664,3.40387 15.2662,11.62132 18.81108,19.33493 3.54488,7.71361 3.54488,14.92402 1.08813,21.4698 -2.45675,6.54578 -7.37006,12.42565 -13.43373,15.85084 -6.06368,3.42519 -13.27137,4.39158 -20.02016,2.67946 -6.7488,-1.71212 -13.03195,-6.10227 -19.31594,-10.49301 1.61128,4.99496 3.22236,9.98932 8.0364,14.17905 z"
           id="path6103"
           inkscape:connector-curvature="0"
           inkscape:original-d="m 862.96073,958.30815 c 8.01711,3.38269 16.03161,6.7657 24.04834,10.15107 8.22017,-0.32332 16.43529,-0.64548 24.65256,-0.96677 10.31412,-3.94899 20.62427,-7.89585 30.93656,-11.84291 4.51306,-10.274 9.02373,-20.54382 13.53474,-30.8157 0.64551,-11.15911 1.29002,-22.31711 1.93353,-33.47432 -13.21161,-19.13512 -26.42449,-38.26963 -39.63746,-57.40182 -18.04532,-4.51258 -36.09318,-9.02454 -54.13897,-13.53474 -12.56697,0.96577 -25.13577,1.9326 -37.70393,2.9003 -16.7563,13.53374 -33.51404,27.06884 -50.2719,40.60423 5.8016,29.32428 11.60236,58.65032 17.40181,87.97583 7.73514,22.55691 15.46962,45.11581 23.20242,67.67368 0.001,22.5569 0.001,45.116 0,67.6738 -9.02216,23.8459 -18.04569,47.6938 -27.06949,71.5407 -27.06848,21.2679 -54.13915,42.5377 -81.20846,63.8067 -27.06848,15.7895 -54.13904,31.5807 -81.20845,47.3716 -30.29105,11.2779 -60.5843,22.5573 -90.87614,33.8368 -28.35751,4.5106 -56.71856,9.0226 -85.07553,13.5348 -10.10978,-0.1621 -20.22056,-0.3233 -30.33233,-0.4834 -15.66868,-1.5317 -31.33838,-3.0624 -47.00906,-4.5922 -15.78953,-7.6545 -31.57935,-15.3078 -47.3716,-22.9607 -4.8258,-9.3843 -9.65116,-18.7647 -14.47973,-28.1485 0.48532,-5.1207 0.96939,-10.2378 1.45266,-15.356 4.99729,-12.2479 9.99225,-24.4916 14.98741,-36.7372 1.3968,-14.5035 2.79231,-29.0031 4.1871,-43.5045 -3.59207,-6.1153 -7.18469,-12.2288 -10.77854,-18.3418 -7.39301,-3.1113 -14.78702,-6.2216 -22.18203,-9.3309 -9.42987,3.4226 -18.8615,6.8465 -28.29261,10.2709 -12.59212,5.9459 -25.18519,11.8929 -37.77931,17.8408 -10.16321,14.5095 -20.32741,29.0199 -30.49256,43.5313 1.84405,11.5215 3.68673,23.0416 5.52916,34.5674 8.98467,-0.968 17.96358,-1.9344 26.94551,-2.9003 9.67879,-4.9119 19.35296,-9.821 29.02983,-14.731 3.65808,-10.249 7.31514,-20.4969 10.97121,-30.7439 -10.87192,1.4944 -32.61877,4.4862 -32.61877,4.4862 0,0 14.71112,-9.7499 21.64756,-14.3466 7.08922,1.9322 14.18026,3.8661 21.26888,5.8006 4.18993,5.7991 8.37965,11.6002 12.56798,17.4018 -2.25486,10.3116 -4.51058,20.6234 -6.76737,30.9366 -7.73401,17.7251 -15.46728,35.4471 -23.20242,53.1722 -1.28811,7.0891 -2.57705,14.1783 -3.86707,21.2689 2.25715,9.9905 4.51258,19.9788 6.76737,29.9698 5.80203,5.8 11.60221,11.6002 17.40181,17.4018 12.56898,4.5106 25.13696,9.0222 37.70393,13.5347 28.03599,3.2214 56.07351,6.4441 84.10876,9.6677 17.08003,-10e-4 34.16012,-10e-4 51.23867,0 22.55759,-3.5456 45.11682,-7.0906 67.67372,-10.6344 35.7696,-9.9905 71.54179,-19.9809 107.31118,-29.9698 49.06282,-19.7385 98.12789,-39.4774 147.19033,-59.2146 31.21953,-21.7129 62.43806,-43.4249 93.65559,-65.1359 9.8298,-9.8701 19.65862,-19.7392 29.4864,-29.6073 4.95568,-11.8438 9.91037,-23.6867 14.86405,-35.5286 -0.724,-15.79 -1.44915,-31.5821 -2.17522,-47.3716 -6.20241,-19.578 -12.40585,-39.1551 -18.61027,-58.7311 -12.9698,-15.5096 -25.94061,-31.0182 -38.91239,-46.5257 -9.74722,-19.05437 -19.49547,-38.10778 -29.24471,-57.16015 1.28999,-12.24645 2.57904,-24.49244 3.86707,-36.73716 9.02335,-4.8344 18.04732,-9.66867 27.06948,-14.50151 9.26463,-1.41068 18.53071,-2.82074 27.79457,-4.22961 7.09062,8.21652 14.18018,16.43396 21.26887,24.65257 10e-4,7.20954 10e-4,14.41995 0,21.63142 -4.9134,5.88017 -9.82671,11.76004 -14.7432,17.64351 -7.21107,0.96598 -14.41876,1.93237 -21.63142,2.9003 -6.28402,-4.39246 -18.85196,-13.17221 -18.85196,-13.17221 0,0 3.22356,9.98893 4.83384,14.98489 z"
           inkscape:path-effect="#path-effect6105"
           sodipodi:nodetypes="cccccccccccccccccccccccccccccccccsccccccccccccccccccccccccccccccc" />
      </g>
      <g
         transform="matrix(1,0,0,0.7896023,39.534743,267.33912)"
         id="g6174"
         style="stroke:#27343a;stroke-opacity:1;stroke-width:4.50148481;stroke-miterlimit:4;stroke-dasharray:none">
        <g
           style="opacity:1;stroke:#27343a;stroke-opacity:1;stroke-width:4.50148481;stroke-miterlimit:4;stroke-dasharray:none"
           id="g6152">
          <path
             sodipodi:nodetypes="ccccc"
             inkscape:connector-curvature="0"
             id="path6118"
             d="m 118.94775,1167.6091 c 333.66979,-257.25302 601.56356,-151.165 712.31929,57.4231 79.29246,-129.5403 58.28692,-638.744 -97.0723,-884.58845 -142.50105,6.87024 -286.57396,5.40968 -424.82918,34.78283 74.6286,242.0691 -58.79332,603.52469 -190.41781,792.38252 z"
             style="fill:#ffffff;stroke:#27343a;stroke-width:4.50148481;stroke-linecap:butt;stroke-linejoin:miter;stroke-opacity:1;stroke-miterlimit:4;stroke-dasharray:none" />
          <path
             sodipodi:nodetypes="cc"
             inkscape:connector-curvature="0"
             id="path6139"
             d="m 426.57125,360.26837 c 38.34582,144.38791 40.84686,448.49724 4.78525,658.99793"
             style="opacity:1;fill:none;stroke:#27343a;stroke-width:4.50148481;stroke-linecap:butt;stroke-linejoin:miter;stroke-opacity:1;stroke-miterlimit:4;stroke-dasharray:none" />
          <path
             sodipodi:nodetypes="cc"
             inkscape:connector-curvature="0"
             id="path6143"
             d="m 631.65358,345.91261 c 90.34549,282.40767 99.19268,587.20386 43.06728,716.42089"
             style="fill:none;stroke:#27343a;stroke-width:4.50148481;stroke-linecap:butt;stroke-linejoin:miter;stroke-opacity:1;stroke-miterlimit:4;stroke-dasharray:none" />
        </g>
        <g
           id="g6161"
           style="stroke:#27343a;stroke-opacity:1;stroke-width:4.50148481;stroke-miterlimit:4;stroke-dasharray:none">
          <path
             sodipodi:nodetypes="cccc"
             inkscape:connector-curvature="0"
             id="path6145"
             d="M 509.96979,111.78247 348.63996,301.1363 537.99931,192.44266 Z"
             style="fill:#3560b8;stroke:#27343a;stroke-width:4.50148481;stroke-linecap:butt;stroke-linejoin:miter;stroke-opacity:1;stroke-miterlimit:4;stroke-dasharray:none;fill-opacity:1" />
          <path
             sodipodi:nodetypes="ccccccccccccc"
             inkscape:connector-curvature="0"
             id="path6116"
             d="m 576.96495,1181.2813 c 30.92917,-106.994 17.27047,-655.84168 -5.46886,-831.26704 14.1509,-1.28782 162.69865,-9.57051 162.69865,-9.57051 l -8.5451,-15.72298 -155.52076,8.20329 C 560.21756,242.3658 546.674,161.30723 524.95468,101.63142 l -14.98489,10.15105 c 22.26608,63.78121 32.2631,142.46056 42.05438,221.38973 -100.43793,8.75545 -199.65957,17.57274 -247.49245,29.00302 l 4.83384,13.05136 c 75.11606,-11.99881 159.67657,-17.38652 243.62538,-23.20241 20.21702,276.67615 41.12162,498.8922 -1.45015,839.63743 z"
             style="fill:#a15c57;stroke:#27343a;stroke-width:4.50148481;stroke-linecap:butt;stroke-linejoin:miter;stroke-opacity:1;stroke-miterlimit:4;stroke-dasharray:none;fill-opacity:1" />
        </g>
      </g>
    </g>
    <path
       sodipodi:nodetypes="csssccccscscssccsccsssssscccc"
       id="path1546"
       d="m 1535.7666,1229.4107 c -25.0334,-0.7998 -44.4243,-2.6126 -49.4251,-4.6206 -1.0588,-0.4252 -4.2882,-1.2572 -7.1764,-1.8489 -4.6552,-0.9537 -5.1118,-1.2655 -4.0222,-2.7471 1.1241,-1.5285 3.1055,-1.5844 23.1764,-0.6541 64.2864,3.9864 109.9772,-9.9052 165.6206,-21.1712 55.9513,-14.3876 99.7857,-24.8434 147.8267,-41.5251 16.225,-5.6549 34.675,-11.6544 41,-13.3322 72.5412,-24.8325 209.4584,-67.5672 249.5,-80.6783 160.4384,-52.5335 356.1486,-38.177 454.7561,18.6332 2.8814,1.1357 5.8025,2.5327 6.4914,3.1044 1.3624,1.1307 1.8323,16.8135 0.5025,16.7702 -0.4125,-0.014 -2.55,-0.4378 -4.75,-0.9429 -3.9905,-0.9162 -19.0601,-2.5175 -38,-4.0377 -5.5,-0.4415 -21.025,-1.7548 -34.5,-2.9184 -52.9661,-4.7791 -85.948,-4.6126 -138,-7.085 -60.1157,-2.9033 -107.8901,-1.6492 -134.5,3.5306 -17.7298,3.4512 -28.7709,6.0984 -52,12.4673 -48.8999,15.6107 -78.2751,25.4917 -124.879,36.9605 -7.9353,-0.3538 98.6189,-42.95 107.4393,-42.95 5.0693,0 0.8907,-2.7317 -7.5603,-4.9425 -9.7391,-2.5477 -54.7473,-1.003 -72,2.4711 -13.3111,2.6803 -27.0135,5.5796 -30.5,6.4534 -1.925,0.4824 -6.2,1.4259 -9.5,2.0967 -10.6137,2.1572 -15.8295,3.6268 -24,6.7619 -4.4,1.6883 -14.075,4.8482 -21.5,7.0221 -66.4342,19.5093 -129.721,55.8898 -194.0148,77.6531 -3.0169,0.9708 -9.0852,3.0405 -13.4852,4.5995 -77.5837,27.1176 -157.8183,33.8971 -236.5,30.93 z"
       style="display:inline;fill:#70e5ff;fill-opacity:1"
       inkscape:connector-curvature="0" />
    <g
       id="g15129"
       transform="matrix(1.1792043,0,0,1.1792043,-471.95439,-97.65114)">
      <path
         inkscape:connector-curvature="0"
         style="display:inline;fill:#ffffff;stroke:#27343a;stroke-width:4;stroke-miterlimit:4;stroke-dasharray:none;stroke-opacity:1"
         d="m 1522.0999,669.99589 c -0.4558,-1.18898 -0.6433,-34.57252 -0.4163,-74.18565 l 0.4127,-72.02387 h 10.2891 10.2892 l 0.8397,59.36033 c 0.4619,32.64818 0.9962,59.53842 1.1872,59.75607 1.3602,1.54932 5.3228,-1.62836 20.7636,-16.65073 l 17.5215,-17.04647 0.4221,-42.7096 0.4224,-42.7096 h 10.2891 10.2891 l 0.4695,40.36502 c 0.6458,55.5457 1.9488,50.56098 -18.3789,70.31365 -35.2069,34.21102 -37.726,35.94806 -53.6982,37.02619 -7.3597,0.49679 -10.0838,0.11619 -10.7018,-1.49534 z m 99.6551,-0.1831 c -0.4172,-1.08827 -0.573,-34.38942 -0.346,-74.00255 l 0.4127,-72.02387 8.2629,-0.47682 c 15.9289,-0.91916 14.6897,-7.14674 14.6897,73.82273 0,53.00284 -0.4787,71.33882 -1.8995,72.75966 -2.5772,2.57722 -20.1263,2.51146 -21.1198,-0.0792 z m 41.487,0.92338 c -1.3186,-1.31855 -1.4099,-141.80936 -0.095,-145.23739 1.0325,-2.69089 16.9525,-3.64618 20.7318,-1.24404 1.1495,0.73072 2.0917,6.1665 2.3744,13.69948 0.6002,15.99995 1.5975,16.18052 15.7958,2.86006 18.6639,-17.50984 19.2109,-17.81938 31.4895,-17.81938 12.5877,0 14.781,1.9381 8.3909,7.4147 -10.7365,9.20165 -22.7574,21.51262 -22.7574,23.30648 0,1.06748 5.6592,7.37536 12.5759,14.01751 15.3279,14.71962 14.5896,11.40323 14.0027,62.90138 l -0.46,40.36503 -9.3508,0.48216 c -6.4093,0.33047 -9.7629,-0.16748 -10.6606,-1.58294 -0.7204,-1.13581 -1.3208,-19.81385 -1.3341,-41.50676 l -0.024,-39.44163 -10.0252,-10.02531 c -11.8287,-11.82867 -11.0168,-11.69025 -20.0507,-3.418 l -7.1232,6.52264 -0.4692,43.64537 c -0.3422,31.85413 -0.9838,43.97254 -2.3744,44.85642 -2.3466,1.49158 -19.1827,1.6582 -20.6367,0.20422 z m 104.1437,-0.92338 c -0.4173,-1.08827 -0.573,-34.38942 -0.346,-74.00255 l 0.4127,-72.02387 9.2355,-0.47872 c 5.447,-0.28235 10.1545,0.28416 11.4763,1.38103 3.5757,2.96763 3.3205,144.76681 -0.2631,146.14196 -4.6845,1.79766 -19.7219,1.05161 -20.5154,-1.01785 z m 41.4294,-1.58294 c -1.2515,-4.66957 -1.2863,-139.47532 -0.036,-142.73107 1.2763,-3.32622 17.063,-3.40963 24.9084,-0.13154 3.1227,1.30474 11.7541,7.79318 19.181,14.41876 16.7454,14.93889 17.9798,14.74872 18.598,-2.86558 l 0.4609,-13.13399 8.6581,-0.49052 c 13.4257,-0.76061 12.7116,-4.97332 12.7116,74.99752 0,79.05416 0.8965,73.9808 -12.9307,73.18954 l -8.439,-0.48291 -0.7915,-41.94797 c -0.5347,-28.33997 -1.4064,-43.01942 -2.6873,-45.2508 -3.0152,-5.25286 -32.3835,-32.49508 -34.3317,-31.84617 -1.2427,0.41399 -1.8857,17.80714 -2.1786,58.94347 -0.4657,65.38625 0.5259,60.83125 -13.2506,60.8687 -7.9195,0.0215 -9.0241,-0.37427 -9.8717,-3.53738 z m 101.3659,2.50632 c -0.5804,-0.58041 -1.0553,-27.66289 -1.0553,-60.18326 v -59.12796 l 3.7696,-5.97156 c 12.3439,-19.55394 35.5117,-27.82057 53.8332,-19.20849 9.359,4.39923 24.0509,19.1759 25.306,25.45211 1.6023,8.01092 1.1335,29.58943 -0.6669,30.70211 -2.5932,1.60269 -19.0759,-16.28952 -20.8176,-22.5979 -2.0429,-7.39876 -14.775,-20.9769 -19.6698,-20.9769 -2.3423,0 -6.3614,2.72019 -10.864,7.35295 l -7.1464,7.35296 v 44.09267 c 0,34.23711 0.4423,44.085 1.9787,44.05841 2.1694,-0.0375 29.6802,-26.12027 29.6802,-28.13959 0,-0.68785 -2.8493,-4.30625 -6.3318,-8.04085 -6.2023,-6.6514 -6.3318,-7.02915 -6.3318,-18.47854 0,-14.79014 0.2919,-14.71076 22.7803,6.1973 20.9813,19.50696 21.0975,20.1651 6.1084,34.61081 -24.272,23.3921 -40.8961,37.79551 -47.0756,40.78694 -6.3367,3.06757 -21.2074,4.4085 -23.4972,2.11879 z m 99.3949,-0.92338 c -0.4173,-1.08827 -0.5731,-34.38942 -0.3461,-74.00255 l 0.4127,-72.02387 8.263,-0.47682 c 15.045,-0.86816 14.6897,-1.69785 14.6897,34.30195 0,17.23663 0.4516,31.79088 1.0034,32.34277 1.282,1.28206 5.7295,-2.24741 20.923,-16.6046 15.7929,-14.92349 15.1426,-13.5901 16.0642,-32.94241 l 0.7915,-16.62089 9.8446,-0.47001 c 9.1396,-0.43634 9.9078,-0.20963 10.7285,3.16588 0.4862,1.99975 0.6863,35.33431 0.4445,74.07683 L 2091.9555,671 h -10.2891 -10.2891 l -0.4032,-38.78209 c -0.2216,-21.33015 -0.7487,-39.71192 -1.1711,-40.84839 -1.1174,-3.00609 -3.5662,-1.24589 -21.3866,15.37214 l -15.8212,14.75368 v 23.24853 c 0,15.97161 -0.5946,23.8431 -1.8996,25.14807 -2.5771,2.57722 -20.1263,2.51146 -21.1197,-0.0792 z m 99.9614,-0.52521 c -2.3374,-6.09094 -1.0115,-84.36711 1.5367,-90.73608 2.2713,-5.67648 13.5932,-17.22104 42.7804,-43.62198 9.8358,-8.89688 17.9072,-12.17624 28.6035,-11.6215 l 9.223,0.47835 V 597.39318 671 l -9.3508,0.48216 c -6.4093,0.33047 -9.7629,-0.16748 -10.6606,-1.58294 -0.7204,-1.13581 -1.3208,-14.72716 -1.3341,-30.20298 l -0.024,-28.13788 -4.3531,2.37557 c -2.3942,1.30654 -10.9421,8.6825 -18.9953,16.39099 l -14.6422,14.01543 v 12.76474 c 0,14.57818 -0.098,14.68638 -13.4151,14.68638 -6.2061,0 -8.6589,-0.65556 -9.3682,-2.50389 z m 43.8579,-72.43649 16.916,-16.37152 v -14.49586 c 0,-18.87081 -1.0073,-18.82474 -21.3698,0.9776 l -15.8294,15.39392 -0.5588,13.07556 c -0.9591,22.44074 -0.8829,22.44593 20.842,1.4203 z m 55.6705,69.79581 c -0.5293,-2.82951 -0.7397,-29.71974 -0.4674,-59.75607 l 0.4949,-54.6115 4.5844,-6.33177 c 18.6513,-25.76122 42.6916,-29.85116 64.4132,-10.95852 11.1652,9.71106 14.1069,14.44036 14.1069,22.67908 v 6.48327 h -10.1664 -10.1663 l -1.7865,-5.41318 c -2.1425,-6.49205 -14.4743,-18.33095 -19.0941,-18.33095 -1.8114,0 -6.6354,3.15694 -10.7202,7.01544 l -7.4268,7.01544 v 43.90104 c 0,29.51179 0.5499,44.08483 1.6776,44.46176 0.9227,0.30839 5.1968,-2.86752 9.4976,-7.05756 14.5607,-14.18507 15.431,-14.60607 30.1948,-14.60607 7.2828,0 13.2415,0.31379 13.2415,0.69731 0,0.70342 -21.7886,21.83705 -38.1176,36.9717 -10.0732,9.3365 -18.7466,12.98515 -30.8677,12.98515 -8.2642,0 -8.4549,-0.10448 -9.3979,-5.14457 z m 101.2985,3.24195 c -0.4334,-1.13011 -0.6023,-34.46548 -0.3753,-74.07861 l 0.4126,-72.02387 6.9963,-0.49988 c 13.4166,-0.95863 14.3735,-0.14167 14.3735,12.27265 0,17.33283 2.2147,19.67507 10.3887,10.98728 2.557,-2.7178 9.4758,-9.12872 15.3748,-14.24648 l 10.7253,-9.30504 h 11.7382 c 6.4559,0 12.1413,0.65275 12.6344,1.45056 0.4931,0.7978 -5.5196,7.38096 -13.3616,14.62922 -7.8419,7.24827 -14.2581,13.6054 -14.2581,14.12696 0,0.52155 5.9456,7.01549 13.2124,14.43098 9.1803,9.36818 13.5278,15.06071 14.2465,18.65361 1.5065,7.53265 1.2211,81.17679 -0.3242,83.61299 -0.8977,1.41546 -4.2513,1.91341 -10.6607,1.58294 L 2372.1363,671 l -0.8588,-41.1565 c -0.4723,-22.63608 -1.0065,-41.38655 -1.1872,-41.66771 -1.1837,-1.84247 -17.468,-16.55653 -19.7407,-17.83694 -2.2471,-1.26612 -4.2529,-0.19227 -10.2891,5.50871 l -7.4978,7.08142 -0.7914,44.03551 -0.7915,44.03551 -9.9138,0.47179 c -7.0224,0.33419 -10.1438,-0.12758 -10.7018,-1.58294 z m 129.5491,-1.7036 c -18.1896,-9.66163 -25.829,-20.6449 -25.829,-37.1346 0,-14.27007 0.3245,-14.67937 11.6058,-14.63793 9.2385,0.0339 9.9912,0.95129 10.9636,13.36315 0.8424,10.75233 1.0511,11.19253 8.8157,18.59957 9.7894,9.33832 10.9594,9.36246 19.4992,0.40209 14.4383,-15.14949 14.0826,-16.02535 -18.6173,-45.84405 -13.3664,-12.18866 -26.0947,-24.81713 -28.2848,-28.06329 -17.3579,-25.72636 22.8016,-62.9468 52.4378,-48.60019 12.7246,6.15988 25.5216,20.90352 26.7623,30.8332 1.8707,14.97338 0.8075,16.54585 -11.1885,16.54585 h -10.2591 v -6.41038 c 0,-8.3007 -2.8441,-13.5919 -11.6875,-21.74345 -8.3385,-7.68609 -9.8043,-7.55146 -19.5756,1.79782 -5.8172,5.56594 -6.7275,7.33311 -6.7275,13.06023 0,6.46066 0.5315,7.12303 21.6469,26.97617 32.9152,30.94762 35.0799,33.29863 36.9069,40.08402 2.9315,10.88646 0.6504,17.86977 -9.2817,28.41609 -14.684,15.59178 -32.3742,20.22386 -47.1872,12.3557 z"
         id="path2049" />
      <text
         xml:space="preserve"
         style="font-size:40px;line-height:1.25;font-family:din;-inkscape-font-specification:din;letter-spacing:0px;word-spacing:0px;display:inline;stroke:none;stroke-opacity:1"
         x="1516.4928"
         y="724.66241"
         id="text2053"><tspan
           sodipodi:role="line"
           id="tspan2051"
           x="1516.4928"
           y="724.66241"
           style="font-style:normal;font-variant:normal;font-weight:bold;font-stretch:normal;font-family:din;-inkscape-font-specification:'din Bold';fill:#ffffff;stroke:none;stroke-opacity:1">WWU'S PREMIERE HACKATHON</tspan></text>
      <g
         id="g12977"
         transform="rotate(27.763307,2050.7838,-1553.3416)"
         style="display:inline;stroke-width:4;stroke-miterlimit:4;stroke-dasharray:none">
        <g
           transform="matrix(0.97633129,-0.03738809,-0.03738809,0.9409402,55.71163,88.004442)"
           id="g13074">
          <g
             transform="matrix(0.85670601,-0.47038471,0.43694981,0.92734903,1061.3969,828.63282)"
             id="g13101">
            <path
               sodipodi:nodetypes="cccc"
               inkscape:connector-curvature="0"
               id="path12972"
               d="m 1497.8678,444.43322 c 16.3547,15.83346 33.7998,-72.02691 28.8143,-77.96473 15.513,36.89479 10.2195,72.46371 4.818,99.39323 z"
               style="display:inline;fill:#70e5ff;fill-opacity:1;stroke:#27343a;stroke-width:4.3576479;stroke-linecap:butt;stroke-linejoin:miter;stroke-miterlimit:4;stroke-dasharray:none;stroke-opacity:1" />
            <path
               sodipodi:nodetypes="cccc"
               inkscape:connector-curvature="0"
               id="path12972-2"
               d="m 1460.7833,468.6007 c 7.3151,21.55612 -79.5627,-0.26225 -82.7969,-7.30871 26.7118,29.80529 61.1262,40.23708 87.7778,46.87518 z"
               style="display:inline;fill:#70e5ff;fill-opacity:1;stroke:#27343a;stroke-width:4.3576479;stroke-linecap:butt;stroke-linejoin:miter;stroke-miterlimit:4;stroke-dasharray:none;stroke-opacity:1" />
            <path
               style="opacity:1;fill:#ffde69;fill-opacity:1;stroke:#27343a;stroke-width:3.81898546;stroke-linecap:butt;stroke-linejoin:miter;stroke-miterlimit:4;stroke-dasharray:none;stroke-opacity:1"
               d="m 1489.1816,547.1923 c 28.1354,-21.87753 48.646,-35.65628 74.7184,-48.29791 3.7674,-1.59181 9.3488,-6.05848 4.6415,-12.96842 -13.6398,-18.01698 -51.9472,-66.77726 -94.5682,-40.47965 -43.6856,26.95451 -10.9722,84.89135 2.5719,102.67496 3.6399,4.18297 8.674,2.26161 12.6364,-0.92898 z"
               id="path12938"
               inkscape:connector-curvature="0"
               sodipodi:nodetypes="cccscc" />
            <path
               style="opacity:1;fill:#3560b8;fill-opacity:1;stroke:none;stroke-width:3.81898546;stroke-linecap:butt;stroke-linejoin:miter;stroke-miterlimit:4;stroke-dasharray:none;stroke-opacity:1"
               d="m 1517.3556,494.15171 c 28.1208,-16.92069 29.2324,-15.66204 34.415,-18.3431 3.7674,-1.5918 4.6863,-1.45779 2.0023,-5.37359 -13.7013,-16.57593 -41.311,-39.15106 -70.9354,-27.55373 8.2349,12.07873 24.2918,37.58596 34.5181,51.27042 z"
               id="path12938-9"
               inkscape:connector-curvature="0"
               sodipodi:nodetypes="ccccc" />
            <path
               style="opacity:1;fill:#3560b8;fill-opacity:1;stroke:none;stroke-width:3.75080705;stroke-linecap:butt;stroke-linejoin:miter;stroke-miterlimit:4;stroke-dasharray:none;stroke-opacity:1"
               d="m 1472.244,526.17915 c -3.0396,2.64995 -4.7806,4.42193 -7.0671,0.37759 -9.2547,-19.07673 -21.8652,-54.48008 4.011,-75.75966 7.0719,12.43613 24.6209,38.6509 33.0346,53.03192 -1.056,0.78394 -23.1695,17.15571 -29.9785,22.35013 z"
               id="path12938-9-2"
               inkscape:connector-curvature="0"
               sodipodi:nodetypes="cccccc" />
            <path
               sodipodi:nodetypes="cc"
               inkscape:connector-curvature="0"
               id="path13064"
               d="m 1464.7016,531.18686 c 28.7752,-24.58928 60.4743,-42.7706 93.0944,-58.93386"
               style="fill:none;stroke:#27343a;stroke-width:3.81898546;stroke-linecap:butt;stroke-linejoin:miter;stroke-miterlimit:4;stroke-dasharray:none;stroke-opacity:1" />
            <path
               style="fill:none;stroke:#27343a;stroke-width:3.98748493;stroke-linecap:butt;stroke-linejoin:miter;stroke-miterlimit:4;stroke-dasharray:none;stroke-opacity:1"
               d="m 1502.2225,503.829 c -14.2201,-17.57857 -24.0784,-36.12155 -33.559,-54.74806"
               id="path13076"
               inkscape:connector-curvature="0"
               sodipodi:nodetypes="cc" />
            <path
               style="display:inline;fill:none;stroke:#27343a;stroke-width:3.98748493;stroke-linecap:butt;stroke-linejoin:miter;stroke-miterlimit:4;stroke-dasharray:none;stroke-opacity:1"
               d="m 1517.3556,494.15171 c -12.418,-16.62991 -24.7596,-34.05993 -35.406,-53.30023"
               id="path13076-3"
               inkscape:connector-curvature="0"
               sodipodi:nodetypes="cc" />
          </g>
        </g>
      </g>
    </g>
    <rect
       style="opacity:1;fill:#ffffff;fill-opacity:1;stroke:none;stroke-width:28.46518898;stroke-linecap:butt;stroke-linejoin:miter;stroke-miterlimit:4;stroke-dasharray:none;stroke-opacity:1;paint-order:stroke fill markers"
       id="rect15029"
       width="671.21533"
       height="2066.8367"
       x="2559.1292"
       y="-44.661449" />
    <rect
       style="display:inline;opacity:1;fill:#ffffff;fill-opacity:1;stroke:none;stroke-width:22.77338409;stroke-linecap:butt;stroke-linejoin:miter;stroke-miterlimit:4;stroke-dasharray:none;stroke-opacity:1;paint-order:stroke fill markers"
       id="rect15029-6"
       width="3060.4392"
       height="290.14249"
       x="-340.72052"
       y="-289.01999" />
    <g
       id="g15236"
       transform="translate(0,-12.664441)">
      <g
         id="g15220">
        <rect
           style="display:inline;opacity:1;fill:#3560b8;fill-opacity:1;stroke:#27343a;stroke-width:7.55905485;stroke-linecap:butt;stroke-linejoin:miter;stroke-miterlimit:4;stroke-dasharray:none;stroke-opacity:1;paint-order:stroke fill markers"
           id="rect15145-2"
           width="475.51645"
           height="106.56583"
           x="1321.8071"
           y="813.81854"
           ry="12.537156" />
        <text
           xml:space="preserve"
           style="font-size:47.16817093px;line-height:1.25;font-family:din;-inkscape-font-specification:din;letter-spacing:0px;word-spacing:0px;display:inline;stroke:none;stroke-width:1.17920434;stroke-opacity:1;fill:#ffffff;fill-opacity:1;"
           x="1445.9749"
           y="884.22528"
           id="text2053-5"><tspan
             sodipodi:role="line"
             id="tspan2051-6"
             x="1445.9749"
             y="884.22528"
             style="font-style:normal;font-variant:normal;font-weight:bold;font-stretch:normal;font-family:din;-inkscape-font-specification:'din Bold';fill:#ffffff;stroke:none;stroke-width:1.17920434;stroke-opacity:1;fill-opacity:1;">SIGN UP</tspan></text>
      </g>
      <g
         transform="translate(-27.760847,-19.921814)"
         id="g15215">
        <g
           id="g15225">
          <rect
             ry="12.537156"
             y="833.74036"
             x="1881.469"
             height="106.56583"
             width="475.51645"
             id="rect15145"
             style="display:inline;opacity:1;fill:#3560b8;fill-opacity:1;stroke:#27343a;stroke-width:7.55905485;stroke-linecap:butt;stroke-linejoin:miter;stroke-miterlimit:4;stroke-dasharray:none;stroke-opacity:1;paint-order:stroke fill markers" />
          <text
             id="text2053-5-7"
             y="904.1701"
             x="1945.4904"
             style="font-size:47.16817093px;line-height:1.25;font-family:din;-inkscape-font-specification:din;letter-spacing:0px;word-spacing:0px;display:inline;stroke:none;stroke-width:1.17920434;stroke-opacity:1;fill:#ffffff;fill-opacity:1;"
             xml:space="preserve"><tspan
               style="font-style:normal;font-variant:normal;font-weight:bold;font-stretch:normal;font-family:din;-inkscape-font-specification:'din Bold';fill:#ffffff;stroke:none;stroke-width:1.17920434;stroke-opacity:1;fill-opacity:1;"
               y="904.1701"
               x="1945.4904"
               id="tspan2051-6-2"
               sodipodi:role="line">SPONSOR US</tspan></text>
        </g>
      </g>
    </g>
  </g>
  <g
     inkscape:label="Image 2"
     id="layer2"
     inkscape:groupmode="layer" />
</svg>
