<?xml version="1.0" standalone="no"?>
<!DOCTYPE svg PUBLIC "-//W3C//DTD SVG 20010904//EN"
 "http://www.w3.org/TR/2001/REC-SVG-20010904/DTD/svg10.dtd">
<svg version="1.0" xmlns="http://www.w3.org/2000/svg"
 width="200.000000pt" height="200.000000pt" viewBox="0 0 200.000000 200.000000"
 preserveAspectRatio="xMidYMid meet">
<metadata>
Created by potrace 1.11, written by Peter Selinger 2001-2013
</metadata>
<g transform="translate(0.000000,200.000000) scale(0.100000,-0.100000)"
fill="#000000" stroke="none">
<path d="M1003 1831 c-33 -9 -91 -34 -129 -56 -75 -44 -234 -188 -234 -213 0
-8 -3 -12 -7 -9 -12 12 -72 -123 -79 -176 -9 -68 -38 -100 -103 -113 -8 -1
-26 -12 -41 -23 -25 -18 -30 -18 -55 -5 -29 15 -30 11 -9 -40 6 -15 4 -18 -8
-13 -26 10 -30 -5 -7 -29 l22 -23 -24 -25 c-13 -14 -32 -26 -41 -26 -10 0 -18
-7 -18 -16 0 -11 5 -14 16 -10 9 3 27 9 40 12 13 3 24 9 24 13 0 3 10 7 23 8
38 2 117 26 117 34 0 5 11 4 25 -1 14 -5 25 -6 25 -1 0 5 30 14 68 21 37 7 72
16 77 20 27 20 433 25 497 6 26 -8 51 -11 58 -6 8 5 17 7 21 5 3 -3 44 -9 91
-14 82 -9 241 -45 340 -75 26 -8 49 -12 51 -8 7 13 -14 92 -23 87 -5 -3 -11
-1 -15 5 -4 6 -10 8 -14 5 -5 -2 -23 9 -40 26 -35 33 -39 55 -26 140 6 40 4
50 -14 68 -11 11 -24 20 -29 20 -23 -4 -32 4 -32 30 0 21 6 32 21 36 19 6 19
8 4 31 -8 13 -13 24 -9 24 3 0 -1 12 -11 26 -9 14 -14 28 -12 31 10 9 -61 63
-83 63 -12 0 -33 9 -47 20 -27 21 -63 27 -63 10 0 -18 -43 -70 -57 -70 -7 0
-21 -8 -32 -19 -35 -35 -80 -56 -92 -44 -9 9 -5 20 15 43 14 17 27 39 28 48 0
9 2 22 2 29 1 6 4 14 8 18 10 10 -14 73 -37 95 -12 11 -44 29 -72 39 -46 17
-53 17 -110 2z"/>
<path d="M1273 1123 c3 -5 -14 -8 -36 -9 -23 0 -80 -2 -127 -3 -47 -1 -87 -2
-90 -2 -3 1 -61 2 -129 4 -122 2 -125 2 -153 -25 -18 -16 -26 -32 -22 -42 12
-31 -28 -17 -68 24 -22 22 -44 40 -49 40 -7 0 -18 -208 -11 -219 3 -6 65 40
75 56 13 22 41 15 69 -18 32 -36 94 -51 104 -25 3 9 10 14 15 11 4 -3 16 6 25
20 10 15 26 25 39 25 13 0 26 6 28 13 3 6 6 -2 6 -18 1 -46 37 -62 145 -64 49
-1 93 -4 97 -7 4 -2 10 0 14 5 3 6 12 8 20 4 20 -7 19 11 0 27 -9 7 -13 15
-11 18 13 12 -27 32 -63 32 -39 0 -41 2 -41 30 0 29 2 30 44 30 40 0 47 4 66
35 12 19 24 35 26 35 3 0 5 -35 4 -77 -3 -142 -5 -133 40 -133 38 0 40 2 40
30 0 21 5 30 16 30 9 0 21 -13 27 -30 10 -27 16 -30 55 -30 41 0 42 1 31 23
-7 12 -20 33 -30 46 -25 32 -24 41 13 100 17 28 29 54 26 56 -3 3 -24 3 -47
-1 -31 -5 -46 -14 -58 -35 -22 -37 -33 -37 -33 -1 0 21 -7 32 -25 40 -30 14
-38 15 -32 5z"/>
<path d="M1060 845 c0 -13 -23 -15 -148 -15 -82 0 -151 -2 -153 -5 -3 -2 -2
-29 1 -60 3 -30 4 -55 1 -55 -4 0 -5 -48 -3 -107 3 -144 3 -151 0 -203 l-3
-45 139 -3 c77 -1 143 1 147 5 4 4 -7 44 -25 88 l-32 80 -62 3 -63 3 2 42 c1
23 0 49 -2 57 -3 12 9 16 64 18 l67 3 32 70 c25 55 33 67 44 58 8 -6 14 -28
14 -48 0 -20 0 -43 1 -51 0 -14 0 -139 -1 -185 0 -11 0 -30 0 -42 0 -12 -5
-25 -10 -28 -13 -8 -13 -45 0 -65 8 -12 17 -7 55 30 41 40 45 48 45 92 0 26 4
48 9 48 5 0 39 -34 75 -75 36 -42 66 -73 66 -69 0 3 9 -4 20 -17 10 -13 20
-21 21 -16 1 12 1 76 -1 85 -4 13 10 215 15 220 1 1 22 -20 46 -49 43 -51 43
-52 47 -143 5 -136 8 -139 72 -73 32 33 40 48 37 70 -2 15 0 30 4 32 4 3 5 14
2 25 -4 14 9 35 41 71 l46 51 0 92 c0 51 -3 96 -7 100 -4 3 -39 -25 -78 -64
l-72 -72 -67 74 c-49 54 -69 70 -75 59 -6 -10 -10 -10 -16 -1 -5 8 -23 -3 -56
-36 -44 -43 -49 -53 -49 -93 l0 -44 -54 49 c-30 27 -57 57 -61 67 -4 11 -16
28 -26 38 -10 10 -19 26 -19 34 0 8 -7 15 -15 15 -8 0 -15 -7 -15 -15z"/>
<path d="M430 602 c0 -164 3 -231 12 -240 8 -8 57 -12 155 -12 79 0 143 1 143
3 0 6 -56 133 -68 155 -11 19 -21 22 -67 22 l-55 0 0 60 0 60 63 0 62 0 26 58
c15 31 30 72 34 90 l7 32 -156 0 -156 0 0 -228z"/>
</g>
</svg>
